<svg xmlns="http://www.w3.org/2000/svg" xmlns:xlink="http://www.w3.org/1999/xlink" width="375" zoomAndPan="magnify" viewBox="0 0 375 295" height="295" preserveAspectRatio="xMidYMid meet" version="1.0"><defs><g/></defs><g fill="#a548ff" fill-opacity="0.302"><g transform="translate(53.347042, 146.325616)"><g><path d="M 20.417969 6.449219 C 36.230469 6.449219 49.433594 -3.53125 58.03125 -19.496094 C 58.800781 -6.753906 66.476562 1.535156 79.21875 1.535156 C 103.78125 1.535156 125.121094 -32.546875 125.121094 -65.246094 C 125.121094 -91.347656 111.917969 -114.222656 72.769531 -114.222656 C 37.613281 -114.222656 12.894531 -91.960938 12.894531 -65.707031 C 12.894531 -54.039062 19.496094 -43.292969 32.085938 -43.292969 C 46.976562 -43.292969 56.496094 -62.636719 52.199219 -63.25 C 48.820312 -63.25 46.363281 -66.628906 46.363281 -71.082031 C 46.363281 -86.894531 60.640625 -93.648438 75.074219 -93.648438 C 96.257812 -93.648438 102.246094 -82.136719 102.246094 -69.085938 C 102.246094 -50.96875 92.574219 -30.242188 79.21875 -30.242188 C 74 -30.242188 71.847656 -33.316406 71.847656 -37.304688 C 71.847656 -46.515625 83.210938 -67.855469 85.359375 -77.835938 C 86.433594 -82.902344 85.050781 -86.125 78.605469 -86.125 C 74 -86.125 70.621094 -84.128906 68.625 -78.757812 C 66.015625 -72.15625 63.097656 -64.328125 60.488281 -57.417969 C 53.273438 -38.996094 41.144531 -31.164062 31.625 -31.164062 C 23.183594 -31.164062 16.582031 -35.769531 16.582031 -42.527344 C 16.582031 -43.601562 15.503906 -44.367188 14.277344 -44.367188 C 1.996094 -44.367188 -6.140625 -31.933594 -6.140625 -19.34375 C -6.140625 -6.601562 1.535156 6.449219 20.417969 6.449219 Z M 20.417969 6.449219 "/></g></g></g><g fill="#a548ff" fill-opacity="0.302"><g transform="translate(166.493615, 146.325616)"><g><path d="M 16.273438 0 C 27.171875 0 36.386719 -9.980469 42.527344 -22.414062 L 43.140625 -22.414062 C 41.296875 -9.671875 45.75 0 56.34375 0 C 73.382812 0 81.828125 -23.949219 89.351562 -38.226562 C 90.886719 -41.144531 84.746094 -45.75 82.441406 -42.066406 C 79.371094 -37.152344 75.535156 -34.234375 70.3125 -34.234375 C 63.558594 -34.234375 61.871094 -40.375 67.089844 -51.582031 C 70.46875 -60.488281 74.457031 -65.246094 74.457031 -71.082031 C 74.457031 -74.457031 73.078125 -76.761719 69.085938 -76.761719 C 61.871094 -76.761719 60.796875 -70.929688 55.730469 -70.929688 C 51.738281 -70.929688 52.351562 -76.761719 40.070312 -76.761719 C 13.664062 -76.761719 0.460938 -44.523438 0.460938 -23.183594 C 0.460938 -9.519531 5.832031 0 16.273438 0 Z M 31.625 -31.78125 C 26.867188 -31.78125 23.949219 -34.851562 23.949219 -40.070312 C 23.949219 -46.824219 29.015625 -54.347656 37 -54.347656 C 41.910156 -54.347656 44.980469 -51.277344 44.980469 -46.210938 C 44.980469 -39.761719 39.609375 -31.78125 31.625 -31.78125 Z M 31.625 -31.78125 "/></g></g></g><g fill="#a548ff" fill-opacity="0.302"><g transform="translate(233.583239, 146.325616)"><g><path d="M 15.503906 0 C 37.613281 0 49.433594 -29.476562 54.039062 -38.226562 C 55.574219 -41.144531 49.589844 -45.597656 47.132812 -42.066406 C 44.0625 -37.304688 39.148438 -34.390625 33.007812 -34.390625 C 23.949219 -34.390625 19.191406 -41.144531 22.414062 -51.890625 C 25.332031 -62.175781 26.253906 -62.484375 40.53125 -62.484375 C 46.671875 -62.484375 48.511719 -76.609375 44.367188 -76.609375 L 36.386719 -76.609375 C 33.46875 -76.609375 33.929688 -79.21875 36.230469 -84.128906 C 40.992188 -93.800781 38.996094 -98.5625 33.316406 -98.5625 C 29.476562 -98.5625 26.097656 -97.179688 22.414062 -88.277344 C 20.265625 -82.75 15.351562 -76.609375 6.449219 -76.609375 C 2.917969 -76.609375 3.070312 -64.785156 11.976562 -64.785156 C 8.136719 -54.195312 4.757812 -45.136719 2.148438 -37.460938 C -4.757812 -17.808594 -1.6875 0 15.503906 0 Z M 15.503906 0 "/></g></g></g><g fill="#a548ff" fill-opacity="0.302"><g transform="translate(265.362539, 146.325616)"><g><path d="M 28.863281 0 C 46.671875 0 62.945312 -13.203125 76.453125 -38.226562 C 78.144531 -41.144531 72.003906 -45.75 69.546875 -42.066406 C 62.636719 -31.472656 50.203125 -26.097656 39.761719 -26.097656 C 31.011719 -26.097656 23.796875 -28.863281 23.796875 -34.234375 C 23.796875 -36.230469 25.332031 -36.691406 26.40625 -36.078125 C 29.9375 -34.082031 34.082031 -33.621094 38.378906 -33.621094 C 53.425781 -33.621094 63.097656 -46.210938 63.097656 -57.417969 C 63.097656 -67.550781 56.804688 -76.761719 42.527344 -76.761719 C -1.535156 -76.761719 -14.277344 0 28.863281 0 Z M 34.390625 -45.136719 C 29.476562 -45.136719 27.171875 -48.054688 27.171875 -51.429688 C 27.171875 -55.574219 30.859375 -60.027344 36.84375 -60.027344 C 41.605469 -60.027344 43.90625 -57.109375 43.90625 -53.734375 C 43.90625 -49.894531 40.375 -45.136719 34.390625 -45.136719 Z M 34.390625 -45.136719 "/></g></g></g><g fill="#a548ff" fill-opacity="0.502"><g transform="translate(50.913977, 141.107892)"><g><path d="M 20.417969 6.449219 C 36.230469 6.449219 49.433594 -3.53125 58.03125 -19.496094 C 58.800781 -6.753906 66.476562 1.535156 79.21875 1.535156 C 103.78125 1.535156 125.121094 -32.546875 125.121094 -65.246094 C 125.121094 -91.347656 111.917969 -114.222656 72.769531 -114.222656 C 37.613281 -114.222656 12.894531 -91.960938 12.894531 -65.707031 C 12.894531 -54.039062 19.496094 -43.292969 32.085938 -43.292969 C 46.976562 -43.292969 56.496094 -62.636719 52.199219 -63.25 C 48.820312 -63.25 46.363281 -66.628906 46.363281 -71.082031 C 46.363281 -86.894531 60.640625 -93.648438 75.074219 -93.648438 C 96.257812 -93.648438 102.246094 -82.136719 102.246094 -69.085938 C 102.246094 -50.96875 92.574219 -30.242188 79.21875 -30.242188 C 74 -30.242188 71.847656 -33.316406 71.847656 -37.304688 C 71.847656 -46.515625 83.210938 -67.855469 85.359375 -77.835938 C 86.433594 -82.902344 85.050781 -86.125 78.605469 -86.125 C 74 -86.125 70.621094 -84.128906 68.625 -78.757812 C 66.015625 -72.15625 63.097656 -64.328125 60.488281 -57.417969 C 53.273438 -38.996094 41.144531 -31.164062 31.625 -31.164062 C 23.183594 -31.164062 16.582031 -35.769531 16.582031 -42.527344 C 16.582031 -43.601562 15.503906 -44.367188 14.277344 -44.367188 C 1.996094 -44.367188 -6.140625 -31.933594 -6.140625 -19.34375 C -6.140625 -6.601562 1.535156 6.449219 20.417969 6.449219 Z M 20.417969 6.449219 "/></g></g></g><g fill="#a548ff" fill-opacity="0.502"><g transform="translate(164.06055, 141.107892)"><g><path d="M 16.273438 0 C 27.171875 0 36.386719 -9.980469 42.527344 -22.414062 L 43.140625 -22.414062 C 41.296875 -9.671875 45.75 0 56.34375 0 C 73.382812 0 81.828125 -23.949219 89.351562 -38.226562 C 90.886719 -41.144531 84.746094 -45.75 82.441406 -42.066406 C 79.371094 -37.152344 75.535156 -34.234375 70.3125 -34.234375 C 63.558594 -34.234375 61.871094 -40.375 67.089844 -51.582031 C 70.46875 -60.488281 74.457031 -65.246094 74.457031 -71.082031 C 74.457031 -74.457031 73.078125 -76.761719 69.085938 -76.761719 C 61.871094 -76.761719 60.796875 -70.929688 55.730469 -70.929688 C 51.738281 -70.929688 52.351562 -76.761719 40.070312 -76.761719 C 13.664062 -76.761719 0.460938 -44.523438 0.460938 -23.183594 C 0.460938 -9.519531 5.832031 0 16.273438 0 Z M 31.625 -31.78125 C 26.867188 -31.78125 23.949219 -34.851562 23.949219 -40.070312 C 23.949219 -46.824219 29.015625 -54.347656 37 -54.347656 C 41.910156 -54.347656 44.980469 -51.277344 44.980469 -46.210938 C 44.980469 -39.761719 39.609375 -31.78125 31.625 -31.78125 Z M 31.625 -31.78125 "/></g></g></g><g fill="#a548ff" fill-opacity="0.502"><g transform="translate(231.150173, 141.107892)"><g><path d="M 15.503906 0 C 37.613281 0 49.433594 -29.476562 54.039062 -38.226562 C 55.574219 -41.144531 49.589844 -45.597656 47.132812 -42.066406 C 44.0625 -37.304688 39.148438 -34.390625 33.007812 -34.390625 C 23.949219 -34.390625 19.191406 -41.144531 22.414062 -51.890625 C 25.332031 -62.175781 26.253906 -62.484375 40.53125 -62.484375 C 46.671875 -62.484375 48.511719 -76.609375 44.367188 -76.609375 L 36.386719 -76.609375 C 33.46875 -76.609375 33.929688 -79.21875 36.230469 -84.128906 C 40.992188 -93.800781 38.996094 -98.5625 33.316406 -98.5625 C 29.476562 -98.5625 26.097656 -97.179688 22.414062 -88.277344 C 20.265625 -82.75 15.351562 -76.609375 6.449219 -76.609375 C 2.917969 -76.609375 3.070312 -64.785156 11.976562 -64.785156 C 8.136719 -54.195312 4.757812 -45.136719 2.148438 -37.460938 C -4.757812 -17.808594 -1.6875 0 15.503906 0 Z M 15.503906 0 "/></g></g></g><g fill="#a548ff" fill-opacity="0.502"><g transform="translate(262.929473, 141.107892)"><g><path d="M 28.863281 0 C 46.671875 0 62.945312 -13.203125 76.453125 -38.226562 C 78.144531 -41.144531 72.003906 -45.75 69.546875 -42.066406 C 62.636719 -31.472656 50.203125 -26.097656 39.761719 -26.097656 C 31.011719 -26.097656 23.796875 -28.863281 23.796875 -34.234375 C 23.796875 -36.230469 25.332031 -36.691406 26.40625 -36.078125 C 29.9375 -34.082031 34.082031 -33.621094 38.378906 -33.621094 C 53.425781 -33.621094 63.097656 -46.210938 63.097656 -57.417969 C 63.097656 -67.550781 56.804688 -76.761719 42.527344 -76.761719 C -1.535156 -76.761719 -14.277344 0 28.863281 0 Z M 34.390625 -45.136719 C 29.476562 -45.136719 27.171875 -48.054688 27.171875 -51.429688 C 27.171875 -55.574219 30.859375 -60.027344 36.84375 -60.027344 C 41.605469 -60.027344 43.90625 -57.109375 43.90625 -53.734375 C 43.90625 -49.894531 40.375 -45.136719 34.390625 -45.136719 Z M 34.390625 -45.136719 "/></g></g></g><g fill="#5e17eb" fill-opacity="1"><g transform="translate(48.480912, 135.89017)"><g><path d="M 20.417969 6.449219 C 36.230469 6.449219 49.433594 -3.53125 58.03125 -19.496094 C 58.800781 -6.753906 66.476562 1.535156 79.21875 1.535156 C 103.78125 1.535156 125.121094 -32.546875 125.121094 -65.246094 C 125.121094 -91.347656 111.917969 -114.222656 72.769531 -114.222656 C 37.613281 -114.222656 12.894531 -91.960938 12.894531 -65.707031 C 12.894531 -54.039062 19.496094 -43.292969 32.085938 -43.292969 C 46.976562 -43.292969 56.496094 -62.636719 52.199219 -63.25 C 48.820312 -63.25 46.363281 -66.628906 46.363281 -71.082031 C 46.363281 -86.894531 60.640625 -93.648438 75.074219 -93.648438 C 96.257812 -93.648438 102.246094 -82.136719 102.246094 -69.085938 C 102.246094 -50.96875 92.574219 -30.242188 79.21875 -30.242188 C 74 -30.242188 71.847656 -33.316406 71.847656 -37.304688 C 71.847656 -46.515625 83.210938 -67.855469 85.359375 -77.835938 C 86.433594 -82.902344 85.050781 -86.125 78.605469 -86.125 C 74 -86.125 70.621094 -84.128906 68.625 -78.757812 C 66.015625 -72.15625 63.097656 -64.328125 60.488281 -57.417969 C 53.273438 -38.996094 41.144531 -31.164062 31.625 -31.164062 C 23.183594 -31.164062 16.582031 -35.769531 16.582031 -42.527344 C 16.582031 -43.601562 15.503906 -44.367188 14.277344 -44.367188 C 1.996094 -44.367188 -6.140625 -31.933594 -6.140625 -19.34375 C -6.140625 -6.601562 1.535156 6.449219 20.417969 6.449219 Z M 20.417969 6.449219 "/></g></g></g><g fill="#5e17eb" fill-opacity="1"><g transform="translate(161.627485, 135.89017)"><g><path d="M 16.273438 0 C 27.171875 0 36.386719 -9.980469 42.527344 -22.414062 L 43.140625 -22.414062 C 41.296875 -9.671875 45.75 0 56.34375 0 C 73.382812 0 81.828125 -23.949219 89.351562 -38.226562 C 90.886719 -41.144531 84.746094 -45.75 82.441406 -42.066406 C 79.371094 -37.152344 75.535156 -34.234375 70.3125 -34.234375 C 63.558594 -34.234375 61.871094 -40.375 67.089844 -51.582031 C 70.46875 -60.488281 74.457031 -65.246094 74.457031 -71.082031 C 74.457031 -74.457031 73.078125 -76.761719 69.085938 -76.761719 C 61.871094 -76.761719 60.796875 -70.929688 55.730469 -70.929688 C 51.738281 -70.929688 52.351562 -76.761719 40.070312 -76.761719 C 13.664062 -76.761719 0.460938 -44.523438 0.460938 -23.183594 C 0.460938 -9.519531 5.832031 0 16.273438 0 Z M 31.625 -31.78125 C 26.867188 -31.78125 23.949219 -34.851562 23.949219 -40.070312 C 23.949219 -46.824219 29.015625 -54.347656 37 -54.347656 C 41.910156 -54.347656 44.980469 -51.277344 44.980469 -46.210938 C 44.980469 -39.761719 39.609375 -31.78125 31.625 -31.78125 Z M 31.625 -31.78125 "/></g></g></g><g fill="#5e17eb" fill-opacity="1"><g transform="translate(228.717108, 135.89017)"><g><path d="M 15.503906 0 C 37.613281 0 49.433594 -29.476562 54.039062 -38.226562 C 55.574219 -41.144531 49.589844 -45.597656 47.132812 -42.066406 C 44.0625 -37.304688 39.148438 -34.390625 33.007812 -34.390625 C 23.949219 -34.390625 19.191406 -41.144531 22.414062 -51.890625 C 25.332031 -62.175781 26.253906 -62.484375 40.53125 -62.484375 C 46.671875 -62.484375 48.511719 -76.609375 44.367188 -76.609375 L 36.386719 -76.609375 C 33.46875 -76.609375 33.929688 -79.21875 36.230469 -84.128906 C 40.992188 -93.800781 38.996094 -98.5625 33.316406 -98.5625 C 29.476562 -98.5625 26.097656 -97.179688 22.414062 -88.277344 C 20.265625 -82.75 15.351562 -76.609375 6.449219 -76.609375 C 2.917969 -76.609375 3.070312 -64.785156 11.976562 -64.785156 C 8.136719 -54.195312 4.757812 -45.136719 2.148438 -37.460938 C -4.757812 -17.808594 -1.6875 0 15.503906 0 Z M 15.503906 0 "/></g></g></g><g fill="#5e17eb" fill-opacity="1"><g transform="translate(260.496408, 135.89017)"><g><path d="M 28.863281 0 C 46.671875 0 62.945312 -13.203125 76.453125 -38.226562 C 78.144531 -41.144531 72.003906 -45.75 69.546875 -42.066406 C 62.636719 -31.472656 50.203125 -26.097656 39.761719 -26.097656 C 31.011719 -26.097656 23.796875 -28.863281 23.796875 -34.234375 C 23.796875 -36.230469 25.332031 -36.691406 26.40625 -36.078125 C 29.9375 -34.082031 34.082031 -33.621094 38.378906 -33.621094 C 53.425781 -33.621094 63.097656 -46.210938 63.097656 -57.417969 C 63.097656 -67.550781 56.804688 -76.761719 42.527344 -76.761719 C -1.535156 -76.761719 -14.277344 0 28.863281 0 Z M 34.390625 -45.136719 C 29.476562 -45.136719 27.171875 -48.054688 27.171875 -51.429688 C 27.171875 -55.574219 30.859375 -60.027344 36.84375 -60.027344 C 41.605469 -60.027344 43.90625 -57.109375 43.90625 -53.734375 C 43.90625 -49.894531 40.375 -45.136719 34.390625 -45.136719 Z M 34.390625 -45.136719 "/></g></g></g><g fill="#a548ff" fill-opacity="0.302"><g transform="translate(36.455488, 271.063245)"><g><path d="M 162.273438 -42.066406 C 158.898438 -37 154.289062 -34.234375 149.683594 -34.234375 C 142.777344 -34.234375 140.320312 -38.6875 140.320312 -44.980469 C 140.320312 -54.347656 145.386719 -80.753906 153.0625 -80.753906 C 155.058594 -80.753906 156.441406 -79.066406 158.742188 -79.066406 C 164.117188 -79.066406 170.105469 -89.195312 170.105469 -98.410156 C 170.105469 -106.699219 165.652344 -114.222656 153.832031 -114.222656 C 136.789062 -114.222656 117.445312 -93.648438 107.3125 -72.308594 C 104.703125 -97.792969 89.964844 -114.222656 63.25 -114.222656 C 32.394531 -114.222656 12.589844 -93.496094 12.589844 -70.3125 C 12.589844 -55.882812 21.492188 -46.363281 33.621094 -46.363281 C 47.285156 -46.363281 54.652344 -58.492188 51.890625 -64.785156 C 47.4375 -64.785156 44.0625 -68.933594 44.0625 -74.304688 C 44.0625 -83.976562 50.816406 -89.65625 58.183594 -89.65625 C 64.785156 -89.65625 68.777344 -85.207031 68.777344 -77.070312 C 68.777344 -60.488281 52.964844 -31.164062 31.472656 -31.164062 C 22.566406 -31.164062 15.964844 -35.769531 15.964844 -42.527344 C 15.964844 -43.601562 14.890625 -44.367188 13.664062 -44.367188 C 1.382812 -44.367188 -6.753906 -31.933594 -6.753906 -19.34375 C -6.753906 -6.601562 1.996094 6.449219 19.804688 6.449219 C 45.902344 6.449219 68.933594 -12.894531 79.066406 -62.789062 C 79.679688 -65.707031 81.214844 -67.089844 83.363281 -67.089844 C 85.359375 -67.089844 87.046875 -65.707031 87.046875 -59.71875 C 87.046875 -45.597656 78.144531 -28.402344 78.144531 -17.042969 C 78.144531 -10.746094 80.601562 -7.367188 90.273438 -7.367188 C 95.339844 -7.367188 100.863281 -9.363281 103.628906 -19.957031 C 113.605469 -58.800781 118.367188 -66.628906 123.738281 -66.628906 C 125.582031 -66.628906 126.65625 -65.554688 126.65625 -63.25 C 126.65625 -57.109375 115.910156 -39.917969 115.910156 -22.414062 C 115.910156 -8.445312 121.742188 0 133.105469 0 C 153.832031 0 164.269531 -29.785156 169.183594 -38.226562 C 167.800781 -41.144531 164.421875 -45.289062 162.273438 -42.066406 Z M 162.273438 -42.066406 "/></g></g></g><g fill="#a548ff" fill-opacity="0.302"><g transform="translate(183.377167, 271.063245)"><g><path d="M 16.273438 0 C 27.171875 0 36.386719 -9.980469 42.527344 -22.414062 L 43.140625 -22.414062 C 41.296875 -9.671875 45.75 0 56.34375 0 C 73.382812 0 81.828125 -23.949219 89.351562 -38.226562 C 90.886719 -41.144531 84.746094 -45.75 82.441406 -42.066406 C 79.371094 -37.152344 75.535156 -34.234375 70.3125 -34.234375 C 63.558594 -34.234375 61.871094 -40.375 67.089844 -51.582031 C 70.46875 -60.488281 74.457031 -65.246094 74.457031 -71.082031 C 74.457031 -74.457031 73.078125 -76.761719 69.085938 -76.761719 C 61.871094 -76.761719 60.796875 -70.929688 55.730469 -70.929688 C 51.738281 -70.929688 52.351562 -76.761719 40.070312 -76.761719 C 13.664062 -76.761719 0.460938 -44.523438 0.460938 -23.183594 C 0.460938 -9.519531 5.832031 0 16.273438 0 Z M 31.625 -31.78125 C 26.867188 -31.78125 23.949219 -34.851562 23.949219 -40.070312 C 23.949219 -46.824219 29.015625 -54.347656 37 -54.347656 C 41.910156 -54.347656 44.980469 -51.277344 44.980469 -46.210938 C 44.980469 -39.761719 39.609375 -31.78125 31.625 -31.78125 Z M 31.625 -31.78125 "/></g></g></g><g fill="#a548ff" fill-opacity="0.302"><g transform="translate(250.46679, 271.063245)"><g><path d="M 15.503906 0 C 37.613281 0 49.433594 -29.476562 54.039062 -38.226562 C 55.574219 -41.144531 49.589844 -45.597656 47.132812 -42.066406 C 44.0625 -37.304688 39.148438 -34.390625 33.007812 -34.390625 C 23.949219 -34.390625 19.191406 -41.144531 22.414062 -51.890625 C 25.332031 -62.175781 26.253906 -62.484375 40.53125 -62.484375 C 46.671875 -62.484375 48.511719 -76.609375 44.367188 -76.609375 L 36.386719 -76.609375 C 33.46875 -76.609375 33.929688 -79.21875 36.230469 -84.128906 C 40.992188 -93.800781 38.996094 -98.5625 33.316406 -98.5625 C 29.476562 -98.5625 26.097656 -97.179688 22.414062 -88.277344 C 20.265625 -82.75 15.351562 -76.609375 6.449219 -76.609375 C 2.917969 -76.609375 3.070312 -64.785156 11.976562 -64.785156 C 8.136719 -54.195312 4.757812 -45.136719 2.148438 -37.460938 C -4.757812 -17.808594 -1.6875 0 15.503906 0 Z M 15.503906 0 "/></g></g></g><g fill="#a548ff" fill-opacity="0.302"><g transform="translate(282.24609, 271.063245)"><g><path d="M 28.863281 0 C 46.671875 0 62.945312 -13.203125 76.453125 -38.226562 C 78.144531 -41.144531 72.003906 -45.75 69.546875 -42.066406 C 62.636719 -31.472656 50.203125 -26.097656 39.761719 -26.097656 C 31.011719 -26.097656 23.796875 -28.863281 23.796875 -34.234375 C 23.796875 -36.230469 25.332031 -36.691406 26.40625 -36.078125 C 29.9375 -34.082031 34.082031 -33.621094 38.378906 -33.621094 C 53.425781 -33.621094 63.097656 -46.210938 63.097656 -57.417969 C 63.097656 -67.550781 56.804688 -76.761719 42.527344 -76.761719 C -1.535156 -76.761719 -14.277344 0 28.863281 0 Z M 34.390625 -45.136719 C 29.476562 -45.136719 27.171875 -48.054688 27.171875 -51.429688 C 27.171875 -55.574219 30.859375 -60.027344 36.84375 -60.027344 C 41.605469 -60.027344 43.90625 -57.109375 43.90625 -53.734375 C 43.90625 -49.894531 40.375 -45.136719 34.390625 -45.136719 Z M 34.390625 -45.136719 "/></g></g></g><g fill="#a548ff" fill-opacity="0.502"><g transform="translate(34.022423, 265.84552)"><g><path d="M 162.273438 -42.066406 C 158.898438 -37 154.289062 -34.234375 149.683594 -34.234375 C 142.777344 -34.234375 140.320312 -38.6875 140.320312 -44.980469 C 140.320312 -54.347656 145.386719 -80.753906 153.0625 -80.753906 C 155.058594 -80.753906 156.441406 -79.066406 158.742188 -79.066406 C 164.117188 -79.066406 170.105469 -89.195312 170.105469 -98.410156 C 170.105469 -106.699219 165.652344 -114.222656 153.832031 -114.222656 C 136.789062 -114.222656 117.445312 -93.648438 107.3125 -72.308594 C 104.703125 -97.792969 89.964844 -114.222656 63.25 -114.222656 C 32.394531 -114.222656 12.589844 -93.496094 12.589844 -70.3125 C 12.589844 -55.882812 21.492188 -46.363281 33.621094 -46.363281 C 47.285156 -46.363281 54.652344 -58.492188 51.890625 -64.785156 C 47.4375 -64.785156 44.0625 -68.933594 44.0625 -74.304688 C 44.0625 -83.976562 50.816406 -89.65625 58.183594 -89.65625 C 64.785156 -89.65625 68.777344 -85.207031 68.777344 -77.070312 C 68.777344 -60.488281 52.964844 -31.164062 31.472656 -31.164062 C 22.566406 -31.164062 15.964844 -35.769531 15.964844 -42.527344 C 15.964844 -43.601562 14.890625 -44.367188 13.664062 -44.367188 C 1.382812 -44.367188 -6.753906 -31.933594 -6.753906 -19.34375 C -6.753906 -6.601562 1.996094 6.449219 19.804688 6.449219 C 45.902344 6.449219 68.933594 -12.894531 79.066406 -62.789062 C 79.679688 -65.707031 81.214844 -67.089844 83.363281 -67.089844 C 85.359375 -67.089844 87.046875 -65.707031 87.046875 -59.71875 C 87.046875 -45.597656 78.144531 -28.402344 78.144531 -17.042969 C 78.144531 -10.746094 80.601562 -7.367188 90.273438 -7.367188 C 95.339844 -7.367188 100.863281 -9.363281 103.628906 -19.957031 C 113.605469 -58.800781 118.367188 -66.628906 123.738281 -66.628906 C 125.582031 -66.628906 126.65625 -65.554688 126.65625 -63.25 C 126.65625 -57.109375 115.910156 -39.917969 115.910156 -22.414062 C 115.910156 -8.445312 121.742188 0 133.105469 0 C 153.832031 0 164.269531 -29.785156 169.183594 -38.226562 C 167.800781 -41.144531 164.421875 -45.289062 162.273438 -42.066406 Z M 162.273438 -42.066406 "/></g></g></g><g fill="#a548ff" fill-opacity="0.502"><g transform="translate(180.944101, 265.84552)"><g><path d="M 16.273438 0 C 27.171875 0 36.386719 -9.980469 42.527344 -22.414062 L 43.140625 -22.414062 C 41.296875 -9.671875 45.75 0 56.34375 0 C 73.382812 0 81.828125 -23.949219 89.351562 -38.226562 C 90.886719 -41.144531 84.746094 -45.75 82.441406 -42.066406 C 79.371094 -37.152344 75.535156 -34.234375 70.3125 -34.234375 C 63.558594 -34.234375 61.871094 -40.375 67.089844 -51.582031 C 70.46875 -60.488281 74.457031 -65.246094 74.457031 -71.082031 C 74.457031 -74.457031 73.078125 -76.761719 69.085938 -76.761719 C 61.871094 -76.761719 60.796875 -70.929688 55.730469 -70.929688 C 51.738281 -70.929688 52.351562 -76.761719 40.070312 -76.761719 C 13.664062 -76.761719 0.460938 -44.523438 0.460938 -23.183594 C 0.460938 -9.519531 5.832031 0 16.273438 0 Z M 31.625 -31.78125 C 26.867188 -31.78125 23.949219 -34.851562 23.949219 -40.070312 C 23.949219 -46.824219 29.015625 -54.347656 37 -54.347656 C 41.910156 -54.347656 44.980469 -51.277344 44.980469 -46.210938 C 44.980469 -39.761719 39.609375 -31.78125 31.625 -31.78125 Z M 31.625 -31.78125 "/></g></g></g><g fill="#a548ff" fill-opacity="0.502"><g transform="translate(248.033725, 265.84552)"><g><path d="M 15.503906 0 C 37.613281 0 49.433594 -29.476562 54.039062 -38.226562 C 55.574219 -41.144531 49.589844 -45.597656 47.132812 -42.066406 C 44.0625 -37.304688 39.148438 -34.390625 33.007812 -34.390625 C 23.949219 -34.390625 19.191406 -41.144531 22.414062 -51.890625 C 25.332031 -62.175781 26.253906 -62.484375 40.53125 -62.484375 C 46.671875 -62.484375 48.511719 -76.609375 44.367188 -76.609375 L 36.386719 -76.609375 C 33.46875 -76.609375 33.929688 -79.21875 36.230469 -84.128906 C 40.992188 -93.800781 38.996094 -98.5625 33.316406 -98.5625 C 29.476562 -98.5625 26.097656 -97.179688 22.414062 -88.277344 C 20.265625 -82.75 15.351562 -76.609375 6.449219 -76.609375 C 2.917969 -76.609375 3.070312 -64.785156 11.976562 -64.785156 C 8.136719 -54.195312 4.757812 -45.136719 2.148438 -37.460938 C -4.757812 -17.808594 -1.6875 0 15.503906 0 Z M 15.503906 0 "/></g></g></g><g fill="#a548ff" fill-opacity="0.502"><g transform="translate(279.813025, 265.84552)"><g><path d="M 28.863281 0 C 46.671875 0 62.945312 -13.203125 76.453125 -38.226562 C 78.144531 -41.144531 72.003906 -45.75 69.546875 -42.066406 C 62.636719 -31.472656 50.203125 -26.097656 39.761719 -26.097656 C 31.011719 -26.097656 23.796875 -28.863281 23.796875 -34.234375 C 23.796875 -36.230469 25.332031 -36.691406 26.40625 -36.078125 C 29.9375 -34.082031 34.082031 -33.621094 38.378906 -33.621094 C 53.425781 -33.621094 63.097656 -46.210938 63.097656 -57.417969 C 63.097656 -67.550781 56.804688 -76.761719 42.527344 -76.761719 C -1.535156 -76.761719 -14.277344 0 28.863281 0 Z M 34.390625 -45.136719 C 29.476562 -45.136719 27.171875 -48.054688 27.171875 -51.429688 C 27.171875 -55.574219 30.859375 -60.027344 36.84375 -60.027344 C 41.605469 -60.027344 43.90625 -57.109375 43.90625 -53.734375 C 43.90625 -49.894531 40.375 -45.136719 34.390625 -45.136719 Z M 34.390625 -45.136719 "/></g></g></g><g fill="#5e17eb" fill-opacity="1"><g transform="translate(31.589358, 260.627798)"><g><path d="M 162.273438 -42.066406 C 158.898438 -37 154.289062 -34.234375 149.683594 -34.234375 C 142.777344 -34.234375 140.320312 -38.6875 140.320312 -44.980469 C 140.320312 -54.347656 145.386719 -80.753906 153.0625 -80.753906 C 155.058594 -80.753906 156.441406 -79.066406 158.742188 -79.066406 C 164.117188 -79.066406 170.105469 -89.195312 170.105469 -98.410156 C 170.105469 -106.699219 165.652344 -114.222656 153.832031 -114.222656 C 136.789062 -114.222656 117.445312 -93.648438 107.3125 -72.308594 C 104.703125 -97.792969 89.964844 -114.222656 63.25 -114.222656 C 32.394531 -114.222656 12.589844 -93.496094 12.589844 -70.3125 C 12.589844 -55.882812 21.492188 -46.363281 33.621094 -46.363281 C 47.285156 -46.363281 54.652344 -58.492188 51.890625 -64.785156 C 47.4375 -64.785156 44.0625 -68.933594 44.0625 -74.304688 C 44.0625 -83.976562 50.816406 -89.65625 58.183594 -89.65625 C 64.785156 -89.65625 68.777344 -85.207031 68.777344 -77.070312 C 68.777344 -60.488281 52.964844 -31.164062 31.472656 -31.164062 C 22.566406 -31.164062 15.964844 -35.769531 15.964844 -42.527344 C 15.964844 -43.601562 14.890625 -44.367188 13.664062 -44.367188 C 1.382812 -44.367188 -6.753906 -31.933594 -6.753906 -19.34375 C -6.753906 -6.601562 1.996094 6.449219 19.804688 6.449219 C 45.902344 6.449219 68.933594 -12.894531 79.066406 -62.789062 C 79.679688 -65.707031 81.214844 -67.089844 83.363281 -67.089844 C 85.359375 -67.089844 87.046875 -65.707031 87.046875 -59.71875 C 87.046875 -45.597656 78.144531 -28.402344 78.144531 -17.042969 C 78.144531 -10.746094 80.601562 -7.367188 90.273438 -7.367188 C 95.339844 -7.367188 100.863281 -9.363281 103.628906 -19.957031 C 113.605469 -58.800781 118.367188 -66.628906 123.738281 -66.628906 C 125.582031 -66.628906 126.65625 -65.554688 126.65625 -63.25 C 126.65625 -57.109375 115.910156 -39.917969 115.910156 -22.414062 C 115.910156 -8.445312 121.742188 0 133.105469 0 C 153.832031 0 164.269531 -29.785156 169.183594 -38.226562 C 167.800781 -41.144531 164.421875 -45.289062 162.273438 -42.066406 Z M 162.273438 -42.066406 "/></g></g></g><g fill="#5e17eb" fill-opacity="1"><g transform="translate(178.511036, 260.627798)"><g><path d="M 16.273438 0 C 27.171875 0 36.386719 -9.980469 42.527344 -22.414062 L 43.140625 -22.414062 C 41.296875 -9.671875 45.75 0 56.34375 0 C 73.382812 0 81.828125 -23.949219 89.351562 -38.226562 C 90.886719 -41.144531 84.746094 -45.75 82.441406 -42.066406 C 79.371094 -37.152344 75.535156 -34.234375 70.3125 -34.234375 C 63.558594 -34.234375 61.871094 -40.375 67.089844 -51.582031 C 70.46875 -60.488281 74.457031 -65.246094 74.457031 -71.082031 C 74.457031 -74.457031 73.078125 -76.761719 69.085938 -76.761719 C 61.871094 -76.761719 60.796875 -70.929688 55.730469 -70.929688 C 51.738281 -70.929688 52.351562 -76.761719 40.070312 -76.761719 C 13.664062 -76.761719 0.460938 -44.523438 0.460938 -23.183594 C 0.460938 -9.519531 5.832031 0 16.273438 0 Z M 31.625 -31.78125 C 26.867188 -31.78125 23.949219 -34.851562 23.949219 -40.070312 C 23.949219 -46.824219 29.015625 -54.347656 37 -54.347656 C 41.910156 -54.347656 44.980469 -51.277344 44.980469 -46.210938 C 44.980469 -39.761719 39.609375 -31.78125 31.625 -31.78125 Z M 31.625 -31.78125 "/></g></g></g><g fill="#5e17eb" fill-opacity="1"><g transform="translate(245.60066, 260.627798)"><g><path d="M 15.503906 0 C 37.613281 0 49.433594 -29.476562 54.039062 -38.226562 C 55.574219 -41.144531 49.589844 -45.597656 47.132812 -42.066406 C 44.0625 -37.304688 39.148438 -34.390625 33.007812 -34.390625 C 23.949219 -34.390625 19.191406 -41.144531 22.414062 -51.890625 C 25.332031 -62.175781 26.253906 -62.484375 40.53125 -62.484375 C 46.671875 -62.484375 48.511719 -76.609375 44.367188 -76.609375 L 36.386719 -76.609375 C 33.46875 -76.609375 33.929688 -79.21875 36.230469 -84.128906 C 40.992188 -93.800781 38.996094 -98.5625 33.316406 -98.5625 C 29.476562 -98.5625 26.097656 -97.179688 22.414062 -88.277344 C 20.265625 -82.75 15.351562 -76.609375 6.449219 -76.609375 C 2.917969 -76.609375 3.070312 -64.785156 11.976562 -64.785156 C 8.136719 -54.195312 4.757812 -45.136719 2.148438 -37.460938 C -4.757812 -17.808594 -1.6875 0 15.503906 0 Z M 15.503906 0 "/></g></g></g><g fill="#5e17eb" fill-opacity="1"><g transform="translate(277.37996, 260.627798)"><g><path d="M 28.863281 0 C 46.671875 0 62.945312 -13.203125 76.453125 -38.226562 C 78.144531 -41.144531 72.003906 -45.75 69.546875 -42.066406 C 62.636719 -31.472656 50.203125 -26.097656 39.761719 -26.097656 C 31.011719 -26.097656 23.796875 -28.863281 23.796875 -34.234375 C 23.796875 -36.230469 25.332031 -36.691406 26.40625 -36.078125 C 29.9375 -34.082031 34.082031 -33.621094 38.378906 -33.621094 C 53.425781 -33.621094 63.097656 -46.210938 63.097656 -57.417969 C 63.097656 -67.550781 56.804688 -76.761719 42.527344 -76.761719 C -1.535156 -76.761719 -14.277344 0 28.863281 0 Z M 34.390625 -45.136719 C 29.476562 -45.136719 27.171875 -48.054688 27.171875 -51.429688 C 27.171875 -55.574219 30.859375 -60.027344 36.84375 -60.027344 C 41.605469 -60.027344 43.90625 -57.109375 43.90625 -53.734375 C 43.90625 -49.894531 40.375 -45.136719 34.390625 -45.136719 Z M 34.390625 -45.136719 "/></g></g></g></svg>
