<svg xmlns="http://www.w3.org/2000/svg" xmlns:xlink="http://www.w3.org/1999/xlink" width="500" zoomAndPan="magnify" viewBox="0 0 375 374.999991" height="500" preserveAspectRatio="xMidYMid meet" version="1.2"><defs/><g id="23a8e8bebf"><g style="fill:#a548ff;fill-opacity:0.302;"><g transform="translate(60.078296, 181.334478)"><path style="stroke:none" d="M 16.421875 3.546875 C 11.554688 4.003906 7.488281 3.394531 4.21875 1.71875 C 0.945312 0.0507812 -1.53125 -2.273438 -3.21875 -5.265625 C -4.914062 -8.253906 -5.921875 -11.390625 -6.234375 -14.671875 C -6.546875 -17.953125 -6.179688 -21.15625 -5.140625 -24.28125 C -4.097656 -27.40625 -2.460938 -30.019531 -0.234375 -32.125 C 1.984375 -34.226562 4.695312 -35.429688 7.90625 -35.734375 C 9.09375 -35.847656 9.734375 -35.425781 9.828125 -34.46875 C 10.078125 -31.832031 11.414062 -29.796875 13.84375 -28.359375 C 16.28125 -26.929688 19.140625 -26.375 22.421875 -26.6875 C 26.179688 -27.039062 30.03125 -29.035156 33.96875 -32.671875 C 37.914062 -36.316406 40.953125 -41.875 43.078125 -49.34375 C 43.847656 -52.15625 44.632812 -55.070312 45.4375 -58.09375 C 46.25 -61.125 47.054688 -63.96875 47.859375 -66.625 C 48.453125 -68.78125 49.367188 -70.359375 50.609375 -71.359375 C 51.847656 -72.367188 53.351562 -72.957031 55.125 -73.125 C 57.675781 -73.363281 59.347656 -72.9375 60.140625 -71.84375 C 60.929688 -70.75 61.21875 -69.179688 61 -67.140625 C 60.789062 -65.179688 60.253906 -62.726562 59.390625 -59.78125 C 58.535156 -56.832031 57.613281 -53.757812 56.625 -50.5625 C 55.644531 -47.363281 54.820312 -44.335938 54.15625 -41.484375 C 53.5 -38.628906 53.253906 -36.285156 53.421875 -34.453125 C 53.566406 -32.921875 54.148438 -31.660156 55.171875 -30.671875 C 56.203125 -29.679688 57.710938 -29.28125 59.703125 -29.46875 C 62.347656 -29.71875 64.664062 -30.84375 66.65625 -32.84375 C 68.644531 -34.851562 70.320312 -37.414062 71.6875 -40.53125 C 73.050781 -43.644531 74 -47.039062 74.53125 -50.71875 C 75.070312 -54.40625 75.179688 -58.007812 74.859375 -61.53125 C 74.535156 -64.96875 73.617188 -68.070312 72.109375 -70.84375 C 70.597656 -73.613281 68.21875 -75.75 64.96875 -77.25 C 61.71875 -78.757812 57.328125 -79.253906 51.796875 -78.734375 C 48.035156 -78.378906 44.492188 -77.421875 41.171875 -75.859375 C 37.847656 -74.296875 35.226562 -72.128906 33.3125 -69.359375 C 31.394531 -66.597656 30.628906 -63.140625 31.015625 -58.984375 C 31.179688 -57.222656 31.757812 -55.800781 32.75 -54.71875 C 33.738281 -53.644531 34.867188 -53.171875 36.140625 -53.296875 C 37.035156 -53.296875 37.335938 -52.472656 37.046875 -50.828125 C 36.753906 -49.191406 35.96875 -47.28125 34.6875 -45.09375 C 33.40625 -42.914062 31.671875 -40.957031 29.484375 -39.21875 C 27.304688 -37.476562 24.78125 -36.472656 21.90625 -36.203125 C 18.613281 -35.890625 15.769531 -36.445312 13.375 -37.875 C 10.988281 -39.3125 9.109375 -41.316406 7.734375 -43.890625 C 6.359375 -46.472656 5.53125 -49.28125 5.25 -52.3125 C 4.757812 -57.4375 5.441406 -62.382812 7.296875 -67.15625 C 9.148438 -71.9375 11.988281 -76.28125 15.8125 -80.1875 C 19.644531 -84.101562 24.328125 -87.332031 29.859375 -89.875 C 35.398438 -92.425781 41.609375 -94.023438 48.484375 -94.671875 C 56.171875 -95.390625 62.726562 -94.972656 68.15625 -93.421875 C 73.59375 -91.867188 78.054688 -89.457031 81.546875 -86.1875 C 85.035156 -82.925781 87.703125 -79.0625 89.546875 -74.59375 C 91.390625 -70.125 92.550781 -65.332031 93.03125 -60.21875 C 93.632812 -53.8125 93.265625 -47.414062 91.921875 -41.03125 C 90.585938 -34.65625 88.492188 -28.8125 85.640625 -23.5 C 82.796875 -18.1875 79.347656 -13.820312 75.296875 -10.40625 C 71.253906 -7 66.832031 -5.070312 62.03125 -4.625 C 57.082031 -4.15625 53.023438 -5.285156 49.859375 -8.015625 C 46.703125 -10.753906 44.726562 -14.585938 43.9375 -19.515625 C 41.175781 -12.953125 37.441406 -7.613281 32.734375 -3.5 C 28.023438 0.613281 22.585938 2.960938 16.421875 3.546875 Z M 16.421875 3.546875 "/></g></g><g style="fill:#a548ff;fill-opacity:0.302;"><g transform="translate(158.248543, 172.09631)"><path style="stroke:none" d="M 12.71875 -1.203125 C 8.632812 -0.816406 5.394531 -2.203125 3 -5.359375 C 0.601562 -8.523438 -0.84375 -12.789062 -1.34375 -18.15625 C -1.664062 -21.507812 -1.582031 -25.125 -1.09375 -29 C -0.613281 -32.882812 0.269531 -36.742188 1.5625 -40.578125 C 2.863281 -44.421875 4.613281 -47.960938 6.8125 -51.203125 C 9.007812 -54.441406 11.664062 -57.113281 14.78125 -59.21875 C 17.894531 -61.320312 21.53125 -62.570312 25.6875 -62.96875 C 28.082031 -63.1875 29.960938 -63.132812 31.328125 -62.8125 C 32.691406 -62.5 33.738281 -62.054688 34.46875 -61.484375 C 35.207031 -60.910156 35.835938 -60.425781 36.359375 -60.03125 C 36.890625 -59.632812 37.554688 -59.472656 38.359375 -59.546875 C 39.710938 -59.679688 40.769531 -60.164062 41.53125 -61 C 42.300781 -61.84375 43.171875 -62.691406 44.140625 -63.546875 C 45.117188 -64.410156 46.53125 -64.925781 48.375 -65.09375 C 49.976562 -65.25 51.113281 -64.957031 51.78125 -64.21875 C 52.445312 -63.476562 52.84375 -62.425781 52.96875 -61.0625 C 53.1875 -58.8125 52.78125 -56.523438 51.75 -54.203125 C 50.71875 -51.890625 49.6875 -48.914062 48.65625 -45.28125 C 47.070312 -40.675781 46.648438 -37.238281 47.390625 -34.96875 C 48.128906 -32.695312 49.816406 -31.6875 52.453125 -31.9375 C 54.546875 -32.132812 56.296875 -32.84375 57.703125 -34.0625 C 59.117188 -35.28125 60.335938 -36.910156 61.359375 -38.953125 C 61.898438 -39.972656 62.6875 -40.390625 63.71875 -40.203125 C 64.75 -40.023438 65.640625 -39.5625 66.390625 -38.8125 C 67.148438 -38.070312 67.367188 -37.289062 67.046875 -36.46875 C 65.867188 -33.53125 64.617188 -30.28125 63.296875 -26.71875 C 61.972656 -23.164062 60.457031 -19.734375 58.75 -16.421875 C 57.050781 -13.117188 55.015625 -10.328125 52.640625 -8.046875 C 50.273438 -5.765625 47.414062 -4.460938 44.0625 -4.140625 C 39.894531 -3.753906 36.789062 -5.160156 34.75 -8.359375 C 32.71875 -11.554688 31.820312 -15.671875 32.0625 -20.703125 L 31.59375 -20.65625 C 29.664062 -15.550781 27.097656 -11.128906 23.890625 -7.390625 C 20.691406 -3.660156 16.96875 -1.597656 12.71875 -1.203125 Z M 22.375 -27.171875 C 24.457031 -27.367188 26.222656 -28.140625 27.671875 -29.484375 C 29.128906 -30.835938 30.21875 -32.410156 30.9375 -34.203125 C 31.65625 -36.003906 31.929688 -37.753906 31.765625 -39.453125 C 31.578125 -41.441406 30.867188 -42.941406 29.640625 -43.953125 C 28.421875 -44.972656 26.851562 -45.390625 24.9375 -45.203125 C 22.851562 -45.003906 21.101562 -44.273438 19.6875 -43.015625 C 18.269531 -41.753906 17.222656 -40.222656 16.546875 -38.421875 C 15.867188 -36.628906 15.613281 -34.851562 15.78125 -33.09375 C 15.96875 -31.09375 16.65625 -29.5625 17.84375 -28.5 C 19.03125 -27.4375 20.539062 -26.992188 22.375 -27.171875 Z M 22.375 -27.171875 "/></g></g><g style="fill:#a548ff;fill-opacity:0.302;"><g transform="translate(220.415071, 166.24622)"><path style="stroke:none" d="M 12.125 -1.140625 C 7.632812 -0.722656 4.195312 -1.789062 1.8125 -4.34375 C -0.5625 -6.90625 -1.957031 -10.40625 -2.375 -14.84375 C -2.789062 -19.289062 -2.351562 -24.160156 -1.0625 -29.453125 C -0.320312 -32.578125 0.519531 -35.960938 1.46875 -39.609375 C 2.425781 -43.253906 3.46875 -47.226562 4.59375 -51.53125 C 2.832031 -51.363281 1.445312 -51.695312 0.4375 -52.53125 C -0.5625 -53.375 -1.257812 -54.398438 -1.65625 -55.609375 C -2.050781 -56.828125 -2.148438 -57.90625 -1.953125 -58.84375 C -1.765625 -59.789062 -1.3125 -60.296875 -0.59375 -60.359375 C 2.925781 -60.691406 5.59375 -61.929688 7.40625 -64.078125 C 9.21875 -66.222656 10.425781 -68.421875 11.03125 -70.671875 C 12.132812 -74.328125 13.320312 -76.675781 14.59375 -77.71875 C 15.875 -78.769531 17.273438 -79.367188 18.796875 -79.515625 C 21.035156 -79.722656 22.519531 -78.910156 23.25 -77.078125 C 23.988281 -75.253906 23.617188 -72.375 22.140625 -68.4375 C 21.429688 -66.4375 21.082031 -64.929688 21.09375 -63.921875 C 21.113281 -62.910156 21.6875 -62.457031 22.8125 -62.5625 L 29.046875 -63.15625 C 29.847656 -63.226562 30.421875 -62.710938 30.765625 -61.609375 C 31.117188 -60.515625 31.222656 -59.234375 31.078125 -57.765625 C 30.929688 -56.296875 30.53125 -54.96875 29.875 -53.78125 C 29.226562 -52.59375 28.300781 -51.941406 27.09375 -51.828125 C 23.414062 -51.484375 20.707031 -51.085938 18.96875 -50.640625 C 17.238281 -50.191406 16.066406 -49.375 15.453125 -48.1875 C 14.835938 -47 14.257812 -45.007812 13.71875 -42.21875 C 12.820312 -37.9375 13.304688 -34.628906 15.171875 -32.296875 C 17.046875 -29.972656 19.75 -28.972656 23.28125 -29.296875 C 25.675781 -29.523438 27.765625 -30.269531 29.546875 -31.53125 C 31.328125 -32.789062 32.734375 -34.398438 33.765625 -36.359375 C 34.304688 -37.378906 35.085938 -37.796875 36.109375 -37.609375 C 37.128906 -37.429688 38.019531 -36.96875 38.78125 -36.21875 C 39.550781 -35.476562 39.769531 -34.691406 39.4375 -33.859375 C 38.84375 -32.429688 38.054688 -30.457031 37.078125 -27.9375 C 36.109375 -25.425781 34.914062 -22.691406 33.5 -19.734375 C 32.082031 -16.785156 30.367188 -13.960938 28.359375 -11.265625 C 26.359375 -8.578125 24.007812 -6.296875 21.3125 -4.421875 C 18.625 -2.554688 15.5625 -1.460938 12.125 -1.140625 Z M 12.125 -1.140625 "/></g></g><g style="fill:#a548ff;fill-opacity:0.302;"><g transform="translate(254.978735, 162.993657)"><path style="stroke:none" d="M 22.578125 -2.125 C 17.773438 -1.675781 13.726562 -2.382812 10.4375 -4.25 C 7.15625 -6.125 4.609375 -8.769531 2.796875 -12.1875 C 0.984375 -15.601562 -0.101562 -19.453125 -0.46875 -23.734375 C -0.84375 -28.023438 -0.507812 -32.378906 0.53125 -36.796875 C 1.570312 -41.222656 3.285156 -45.34375 5.671875 -49.15625 C 8.054688 -52.96875 11.085938 -56.132812 14.765625 -58.65625 C 18.453125 -61.1875 22.734375 -62.679688 27.609375 -63.140625 C 31.367188 -63.492188 34.492188 -63.082031 36.984375 -61.90625 C 39.472656 -60.726562 41.382812 -59.03125 42.71875 -56.8125 C 44.0625 -54.59375 44.859375 -52.164062 45.109375 -49.53125 C 45.378906 -46.644531 44.847656 -43.6875 43.515625 -40.65625 C 42.191406 -37.625 40.175781 -35.035156 37.46875 -32.890625 C 34.769531 -30.742188 31.457031 -29.488281 27.53125 -29.125 C 25.851562 -28.96875 24.203125 -28.929688 22.578125 -29.015625 C 20.953125 -29.097656 19.421875 -29.472656 17.984375 -30.140625 C 17.566406 -30.347656 17.128906 -30.328125 16.671875 -30.078125 C 16.210938 -29.835938 16.019531 -29.316406 16.09375 -28.515625 C 16.289062 -26.429688 17.660156 -24.960938 20.203125 -24.109375 C 22.742188 -23.265625 25.726562 -23.003906 29.15625 -23.328125 C 33.238281 -23.710938 37.363281 -25.148438 41.53125 -27.640625 C 45.707031 -30.128906 48.957031 -33.582031 51.28125 -38 C 51.820312 -39.019531 52.625 -39.441406 53.6875 -39.265625 C 54.757812 -39.085938 55.675781 -38.625 56.4375 -37.875 C 57.195312 -37.132812 57.375 -36.347656 56.96875 -35.515625 C 52.59375 -25.253906 47.503906 -17.285156 41.703125 -11.609375 C 35.910156 -5.941406 29.535156 -2.78125 22.578125 -2.125 Z M 23.546875 -37.828125 C 25.867188 -38.046875 27.625 -38.957031 28.8125 -40.5625 C 30 -42.164062 30.519531 -43.726562 30.375 -45.25 C 30.25 -46.613281 29.675781 -47.726562 28.65625 -48.59375 C 27.644531 -49.46875 26.222656 -49.820312 24.390625 -49.65625 C 22.066406 -49.4375 20.289062 -48.539062 19.0625 -46.96875 C 17.84375 -45.394531 17.3125 -43.8125 17.46875 -42.21875 C 17.582031 -40.925781 18.144531 -39.828125 19.15625 -38.921875 C 20.164062 -38.015625 21.628906 -37.648438 23.546875 -37.828125 Z M 23.546875 -37.828125 "/></g></g><g style="fill:#a548ff;fill-opacity:0.502;"><g transform="translate(58.076143, 177.11337)"><path style="stroke:none" d="M 16.421875 3.546875 C 11.554688 4.003906 7.488281 3.394531 4.21875 1.71875 C 0.945312 0.0507812 -1.53125 -2.273438 -3.21875 -5.265625 C -4.914062 -8.253906 -5.921875 -11.390625 -6.234375 -14.671875 C -6.546875 -17.953125 -6.179688 -21.15625 -5.140625 -24.28125 C -4.097656 -27.40625 -2.460938 -30.019531 -0.234375 -32.125 C 1.984375 -34.226562 4.695312 -35.429688 7.90625 -35.734375 C 9.09375 -35.847656 9.734375 -35.425781 9.828125 -34.46875 C 10.078125 -31.832031 11.414062 -29.796875 13.84375 -28.359375 C 16.28125 -26.929688 19.140625 -26.375 22.421875 -26.6875 C 26.179688 -27.039062 30.03125 -29.035156 33.96875 -32.671875 C 37.914062 -36.316406 40.953125 -41.875 43.078125 -49.34375 C 43.847656 -52.15625 44.632812 -55.070312 45.4375 -58.09375 C 46.25 -61.125 47.054688 -63.96875 47.859375 -66.625 C 48.453125 -68.78125 49.367188 -70.359375 50.609375 -71.359375 C 51.847656 -72.367188 53.351562 -72.957031 55.125 -73.125 C 57.675781 -73.363281 59.347656 -72.9375 60.140625 -71.84375 C 60.929688 -70.75 61.21875 -69.179688 61 -67.140625 C 60.789062 -65.179688 60.253906 -62.726562 59.390625 -59.78125 C 58.535156 -56.832031 57.613281 -53.757812 56.625 -50.5625 C 55.644531 -47.363281 54.820312 -44.335938 54.15625 -41.484375 C 53.5 -38.628906 53.253906 -36.285156 53.421875 -34.453125 C 53.566406 -32.921875 54.148438 -31.660156 55.171875 -30.671875 C 56.203125 -29.679688 57.710938 -29.28125 59.703125 -29.46875 C 62.347656 -29.71875 64.664062 -30.84375 66.65625 -32.84375 C 68.644531 -34.851562 70.320312 -37.414062 71.6875 -40.53125 C 73.050781 -43.644531 74 -47.039062 74.53125 -50.71875 C 75.070312 -54.40625 75.179688 -58.007812 74.859375 -61.53125 C 74.535156 -64.96875 73.617188 -68.070312 72.109375 -70.84375 C 70.597656 -73.613281 68.21875 -75.75 64.96875 -77.25 C 61.71875 -78.757812 57.328125 -79.253906 51.796875 -78.734375 C 48.035156 -78.378906 44.492188 -77.421875 41.171875 -75.859375 C 37.847656 -74.296875 35.226562 -72.128906 33.3125 -69.359375 C 31.394531 -66.597656 30.628906 -63.140625 31.015625 -58.984375 C 31.179688 -57.222656 31.757812 -55.800781 32.75 -54.71875 C 33.738281 -53.644531 34.867188 -53.171875 36.140625 -53.296875 C 37.035156 -53.296875 37.335938 -52.472656 37.046875 -50.828125 C 36.753906 -49.191406 35.96875 -47.28125 34.6875 -45.09375 C 33.40625 -42.914062 31.671875 -40.957031 29.484375 -39.21875 C 27.304688 -37.476562 24.78125 -36.472656 21.90625 -36.203125 C 18.613281 -35.890625 15.769531 -36.445312 13.375 -37.875 C 10.988281 -39.3125 9.109375 -41.316406 7.734375 -43.890625 C 6.359375 -46.472656 5.53125 -49.28125 5.25 -52.3125 C 4.757812 -57.4375 5.441406 -62.382812 7.296875 -67.15625 C 9.148438 -71.9375 11.988281 -76.28125 15.8125 -80.1875 C 19.644531 -84.101562 24.328125 -87.332031 29.859375 -89.875 C 35.398438 -92.425781 41.609375 -94.023438 48.484375 -94.671875 C 56.171875 -95.390625 62.726562 -94.972656 68.15625 -93.421875 C 73.59375 -91.867188 78.054688 -89.457031 81.546875 -86.1875 C 85.035156 -82.925781 87.703125 -79.0625 89.546875 -74.59375 C 91.390625 -70.125 92.550781 -65.332031 93.03125 -60.21875 C 93.632812 -53.8125 93.265625 -47.414062 91.921875 -41.03125 C 90.585938 -34.65625 88.492188 -28.8125 85.640625 -23.5 C 82.796875 -18.1875 79.347656 -13.820312 75.296875 -10.40625 C 71.253906 -7 66.832031 -5.070312 62.03125 -4.625 C 57.082031 -4.15625 53.023438 -5.285156 49.859375 -8.015625 C 46.703125 -10.753906 44.726562 -14.585938 43.9375 -19.515625 C 41.175781 -12.953125 37.441406 -7.613281 32.734375 -3.5 C 28.023438 0.613281 22.585938 2.960938 16.421875 3.546875 Z M 16.421875 3.546875 "/></g></g><g style="fill:#a548ff;fill-opacity:0.502;"><g transform="translate(156.24639, 167.875202)"><path style="stroke:none" d="M 12.71875 -1.203125 C 8.632812 -0.816406 5.394531 -2.203125 3 -5.359375 C 0.601562 -8.523438 -0.84375 -12.789062 -1.34375 -18.15625 C -1.664062 -21.507812 -1.582031 -25.125 -1.09375 -29 C -0.613281 -32.882812 0.269531 -36.742188 1.5625 -40.578125 C 2.863281 -44.421875 4.613281 -47.960938 6.8125 -51.203125 C 9.007812 -54.441406 11.664062 -57.113281 14.78125 -59.21875 C 17.894531 -61.320312 21.53125 -62.570312 25.6875 -62.96875 C 28.082031 -63.1875 29.960938 -63.132812 31.328125 -62.8125 C 32.691406 -62.5 33.738281 -62.054688 34.46875 -61.484375 C 35.207031 -60.910156 35.835938 -60.425781 36.359375 -60.03125 C 36.890625 -59.632812 37.554688 -59.472656 38.359375 -59.546875 C 39.710938 -59.679688 40.769531 -60.164062 41.53125 -61 C 42.300781 -61.84375 43.171875 -62.691406 44.140625 -63.546875 C 45.117188 -64.410156 46.53125 -64.925781 48.375 -65.09375 C 49.976562 -65.25 51.113281 -64.957031 51.78125 -64.21875 C 52.445312 -63.476562 52.84375 -62.425781 52.96875 -61.0625 C 53.1875 -58.8125 52.78125 -56.523438 51.75 -54.203125 C 50.71875 -51.890625 49.6875 -48.914062 48.65625 -45.28125 C 47.070312 -40.675781 46.648438 -37.238281 47.390625 -34.96875 C 48.128906 -32.695312 49.816406 -31.6875 52.453125 -31.9375 C 54.546875 -32.132812 56.296875 -32.84375 57.703125 -34.0625 C 59.117188 -35.28125 60.335938 -36.910156 61.359375 -38.953125 C 61.898438 -39.972656 62.6875 -40.390625 63.71875 -40.203125 C 64.75 -40.023438 65.640625 -39.5625 66.390625 -38.8125 C 67.148438 -38.070312 67.367188 -37.289062 67.046875 -36.46875 C 65.867188 -33.53125 64.617188 -30.28125 63.296875 -26.71875 C 61.972656 -23.164062 60.457031 -19.734375 58.75 -16.421875 C 57.050781 -13.117188 55.015625 -10.328125 52.640625 -8.046875 C 50.273438 -5.765625 47.414062 -4.460938 44.0625 -4.140625 C 39.894531 -3.753906 36.789062 -5.160156 34.75 -8.359375 C 32.71875 -11.554688 31.820312 -15.671875 32.0625 -20.703125 L 31.59375 -20.65625 C 29.664062 -15.550781 27.097656 -11.128906 23.890625 -7.390625 C 20.691406 -3.660156 16.96875 -1.597656 12.71875 -1.203125 Z M 22.375 -27.171875 C 24.457031 -27.367188 26.222656 -28.140625 27.671875 -29.484375 C 29.128906 -30.835938 30.21875 -32.410156 30.9375 -34.203125 C 31.65625 -36.003906 31.929688 -37.753906 31.765625 -39.453125 C 31.578125 -41.441406 30.867188 -42.941406 29.640625 -43.953125 C 28.421875 -44.972656 26.851562 -45.390625 24.9375 -45.203125 C 22.851562 -45.003906 21.101562 -44.273438 19.6875 -43.015625 C 18.269531 -41.753906 17.222656 -40.222656 16.546875 -38.421875 C 15.867188 -36.628906 15.613281 -34.851562 15.78125 -33.09375 C 15.96875 -31.09375 16.65625 -29.5625 17.84375 -28.5 C 19.03125 -27.4375 20.539062 -26.992188 22.375 -27.171875 Z M 22.375 -27.171875 "/></g></g><g style="fill:#a548ff;fill-opacity:0.502;"><g transform="translate(218.412918, 162.025112)"><path style="stroke:none" d="M 12.125 -1.140625 C 7.632812 -0.722656 4.195312 -1.789062 1.8125 -4.34375 C -0.5625 -6.90625 -1.957031 -10.40625 -2.375 -14.84375 C -2.789062 -19.289062 -2.351562 -24.160156 -1.0625 -29.453125 C -0.320312 -32.578125 0.519531 -35.960938 1.46875 -39.609375 C 2.425781 -43.253906 3.46875 -47.226562 4.59375 -51.53125 C 2.832031 -51.363281 1.445312 -51.695312 0.4375 -52.53125 C -0.5625 -53.375 -1.257812 -54.398438 -1.65625 -55.609375 C -2.050781 -56.828125 -2.148438 -57.90625 -1.953125 -58.84375 C -1.765625 -59.789062 -1.3125 -60.296875 -0.59375 -60.359375 C 2.925781 -60.691406 5.59375 -61.929688 7.40625 -64.078125 C 9.21875 -66.222656 10.425781 -68.421875 11.03125 -70.671875 C 12.132812 -74.328125 13.320312 -76.675781 14.59375 -77.71875 C 15.875 -78.769531 17.273438 -79.367188 18.796875 -79.515625 C 21.035156 -79.722656 22.519531 -78.910156 23.25 -77.078125 C 23.988281 -75.253906 23.617188 -72.375 22.140625 -68.4375 C 21.429688 -66.4375 21.082031 -64.929688 21.09375 -63.921875 C 21.113281 -62.910156 21.6875 -62.457031 22.8125 -62.5625 L 29.046875 -63.15625 C 29.847656 -63.226562 30.421875 -62.710938 30.765625 -61.609375 C 31.117188 -60.515625 31.222656 -59.234375 31.078125 -57.765625 C 30.929688 -56.296875 30.53125 -54.96875 29.875 -53.78125 C 29.226562 -52.59375 28.300781 -51.941406 27.09375 -51.828125 C 23.414062 -51.484375 20.707031 -51.085938 18.96875 -50.640625 C 17.238281 -50.191406 16.066406 -49.375 15.453125 -48.1875 C 14.835938 -47 14.257812 -45.007812 13.71875 -42.21875 C 12.820312 -37.9375 13.304688 -34.628906 15.171875 -32.296875 C 17.046875 -29.972656 19.75 -28.972656 23.28125 -29.296875 C 25.675781 -29.523438 27.765625 -30.269531 29.546875 -31.53125 C 31.328125 -32.789062 32.734375 -34.398438 33.765625 -36.359375 C 34.304688 -37.378906 35.085938 -37.796875 36.109375 -37.609375 C 37.128906 -37.429688 38.019531 -36.96875 38.78125 -36.21875 C 39.550781 -35.476562 39.769531 -34.691406 39.4375 -33.859375 C 38.84375 -32.429688 38.054688 -30.457031 37.078125 -27.9375 C 36.109375 -25.425781 34.914062 -22.691406 33.5 -19.734375 C 32.082031 -16.785156 30.367188 -13.960938 28.359375 -11.265625 C 26.359375 -8.578125 24.007812 -6.296875 21.3125 -4.421875 C 18.625 -2.554688 15.5625 -1.460938 12.125 -1.140625 Z M 12.125 -1.140625 "/></g></g><g style="fill:#a548ff;fill-opacity:0.502;"><g transform="translate(252.976582, 158.772549)"><path style="stroke:none" d="M 22.578125 -2.125 C 17.773438 -1.675781 13.726562 -2.382812 10.4375 -4.25 C 7.15625 -6.125 4.609375 -8.769531 2.796875 -12.1875 C 0.984375 -15.601562 -0.101562 -19.453125 -0.46875 -23.734375 C -0.84375 -28.023438 -0.507812 -32.378906 0.53125 -36.796875 C 1.570312 -41.222656 3.285156 -45.34375 5.671875 -49.15625 C 8.054688 -52.96875 11.085938 -56.132812 14.765625 -58.65625 C 18.453125 -61.1875 22.734375 -62.679688 27.609375 -63.140625 C 31.367188 -63.492188 34.492188 -63.082031 36.984375 -61.90625 C 39.472656 -60.726562 41.382812 -59.03125 42.71875 -56.8125 C 44.0625 -54.59375 44.859375 -52.164062 45.109375 -49.53125 C 45.378906 -46.644531 44.847656 -43.6875 43.515625 -40.65625 C 42.191406 -37.625 40.175781 -35.035156 37.46875 -32.890625 C 34.769531 -30.742188 31.457031 -29.488281 27.53125 -29.125 C 25.851562 -28.96875 24.203125 -28.929688 22.578125 -29.015625 C 20.953125 -29.097656 19.421875 -29.472656 17.984375 -30.140625 C 17.566406 -30.347656 17.128906 -30.328125 16.671875 -30.078125 C 16.210938 -29.835938 16.019531 -29.316406 16.09375 -28.515625 C 16.289062 -26.429688 17.660156 -24.960938 20.203125 -24.109375 C 22.742188 -23.265625 25.726562 -23.003906 29.15625 -23.328125 C 33.238281 -23.710938 37.363281 -25.148438 41.53125 -27.640625 C 45.707031 -30.128906 48.957031 -33.582031 51.28125 -38 C 51.820312 -39.019531 52.625 -39.441406 53.6875 -39.265625 C 54.757812 -39.085938 55.675781 -38.625 56.4375 -37.875 C 57.195312 -37.132812 57.375 -36.347656 56.96875 -35.515625 C 52.59375 -25.253906 47.503906 -17.285156 41.703125 -11.609375 C 35.910156 -5.941406 29.535156 -2.78125 22.578125 -2.125 Z M 23.546875 -37.828125 C 25.867188 -38.046875 27.625 -38.957031 28.8125 -40.5625 C 30 -42.164062 30.519531 -43.726562 30.375 -45.25 C 30.25 -46.613281 29.675781 -47.726562 28.65625 -48.59375 C 27.644531 -49.46875 26.222656 -49.820312 24.390625 -49.65625 C 22.066406 -49.4375 20.289062 -48.539062 19.0625 -46.96875 C 17.84375 -45.394531 17.3125 -43.8125 17.46875 -42.21875 C 17.582031 -40.925781 18.144531 -39.828125 19.15625 -38.921875 C 20.164062 -38.015625 21.628906 -37.648438 23.546875 -37.828125 Z M 23.546875 -37.828125 "/></g></g><g style="fill:#5e17eb;fill-opacity:1;"><g transform="translate(56.073991, 172.89227)"><path style="stroke:none" d="M 16.421875 3.546875 C 11.554688 4.003906 7.488281 3.394531 4.21875 1.71875 C 0.945312 0.0507812 -1.53125 -2.273438 -3.21875 -5.265625 C -4.914062 -8.253906 -5.921875 -11.390625 -6.234375 -14.671875 C -6.546875 -17.953125 -6.179688 -21.15625 -5.140625 -24.28125 C -4.097656 -27.40625 -2.460938 -30.019531 -0.234375 -32.125 C 1.984375 -34.226562 4.695312 -35.429688 7.90625 -35.734375 C 9.09375 -35.847656 9.734375 -35.425781 9.828125 -34.46875 C 10.078125 -31.832031 11.414062 -29.796875 13.84375 -28.359375 C 16.28125 -26.929688 19.140625 -26.375 22.421875 -26.6875 C 26.179688 -27.039062 30.03125 -29.035156 33.96875 -32.671875 C 37.914062 -36.316406 40.953125 -41.875 43.078125 -49.34375 C 43.847656 -52.15625 44.632812 -55.070312 45.4375 -58.09375 C 46.25 -61.125 47.054688 -63.96875 47.859375 -66.625 C 48.453125 -68.78125 49.367188 -70.359375 50.609375 -71.359375 C 51.847656 -72.367188 53.351562 -72.957031 55.125 -73.125 C 57.675781 -73.363281 59.347656 -72.9375 60.140625 -71.84375 C 60.929688 -70.75 61.21875 -69.179688 61 -67.140625 C 60.789062 -65.179688 60.253906 -62.726562 59.390625 -59.78125 C 58.535156 -56.832031 57.613281 -53.757812 56.625 -50.5625 C 55.644531 -47.363281 54.820312 -44.335938 54.15625 -41.484375 C 53.5 -38.628906 53.253906 -36.285156 53.421875 -34.453125 C 53.566406 -32.921875 54.148438 -31.660156 55.171875 -30.671875 C 56.203125 -29.679688 57.710938 -29.28125 59.703125 -29.46875 C 62.347656 -29.71875 64.664062 -30.84375 66.65625 -32.84375 C 68.644531 -34.851562 70.320312 -37.414062 71.6875 -40.53125 C 73.050781 -43.644531 74 -47.039062 74.53125 -50.71875 C 75.070312 -54.40625 75.179688 -58.007812 74.859375 -61.53125 C 74.535156 -64.96875 73.617188 -68.070312 72.109375 -70.84375 C 70.597656 -73.613281 68.21875 -75.75 64.96875 -77.25 C 61.71875 -78.757812 57.328125 -79.253906 51.796875 -78.734375 C 48.035156 -78.378906 44.492188 -77.421875 41.171875 -75.859375 C 37.847656 -74.296875 35.226562 -72.128906 33.3125 -69.359375 C 31.394531 -66.597656 30.628906 -63.140625 31.015625 -58.984375 C 31.179688 -57.222656 31.757812 -55.800781 32.75 -54.71875 C 33.738281 -53.644531 34.867188 -53.171875 36.140625 -53.296875 C 37.035156 -53.296875 37.335938 -52.472656 37.046875 -50.828125 C 36.753906 -49.191406 35.96875 -47.28125 34.6875 -45.09375 C 33.40625 -42.914062 31.671875 -40.957031 29.484375 -39.21875 C 27.304688 -37.476562 24.78125 -36.472656 21.90625 -36.203125 C 18.613281 -35.890625 15.769531 -36.445312 13.375 -37.875 C 10.988281 -39.3125 9.109375 -41.316406 7.734375 -43.890625 C 6.359375 -46.472656 5.53125 -49.28125 5.25 -52.3125 C 4.757812 -57.4375 5.441406 -62.382812 7.296875 -67.15625 C 9.148438 -71.9375 11.988281 -76.28125 15.8125 -80.1875 C 19.644531 -84.101562 24.328125 -87.332031 29.859375 -89.875 C 35.398438 -92.425781 41.609375 -94.023438 48.484375 -94.671875 C 56.171875 -95.390625 62.726562 -94.972656 68.15625 -93.421875 C 73.59375 -91.867188 78.054688 -89.457031 81.546875 -86.1875 C 85.035156 -82.925781 87.703125 -79.0625 89.546875 -74.59375 C 91.390625 -70.125 92.550781 -65.332031 93.03125 -60.21875 C 93.632812 -53.8125 93.265625 -47.414062 91.921875 -41.03125 C 90.585938 -34.65625 88.492188 -28.8125 85.640625 -23.5 C 82.796875 -18.1875 79.347656 -13.820312 75.296875 -10.40625 C 71.253906 -7 66.832031 -5.070312 62.03125 -4.625 C 57.082031 -4.15625 53.023438 -5.285156 49.859375 -8.015625 C 46.703125 -10.753906 44.726562 -14.585938 43.9375 -19.515625 C 41.175781 -12.953125 37.441406 -7.613281 32.734375 -3.5 C 28.023438 0.613281 22.585938 2.960938 16.421875 3.546875 Z M 16.421875 3.546875 "/></g></g><g style="fill:#5e17eb;fill-opacity:1;"><g transform="translate(154.244239, 163.654102)"><path style="stroke:none" d="M 12.71875 -1.203125 C 8.632812 -0.816406 5.394531 -2.203125 3 -5.359375 C 0.601562 -8.523438 -0.84375 -12.789062 -1.34375 -18.15625 C -1.664062 -21.507812 -1.582031 -25.125 -1.09375 -29 C -0.613281 -32.882812 0.269531 -36.742188 1.5625 -40.578125 C 2.863281 -44.421875 4.613281 -47.960938 6.8125 -51.203125 C 9.007812 -54.441406 11.664062 -57.113281 14.78125 -59.21875 C 17.894531 -61.320312 21.53125 -62.570312 25.6875 -62.96875 C 28.082031 -63.1875 29.960938 -63.132812 31.328125 -62.8125 C 32.691406 -62.5 33.738281 -62.054688 34.46875 -61.484375 C 35.207031 -60.910156 35.835938 -60.425781 36.359375 -60.03125 C 36.890625 -59.632812 37.554688 -59.472656 38.359375 -59.546875 C 39.710938 -59.679688 40.769531 -60.164062 41.53125 -61 C 42.300781 -61.84375 43.171875 -62.691406 44.140625 -63.546875 C 45.117188 -64.410156 46.53125 -64.925781 48.375 -65.09375 C 49.976562 -65.25 51.113281 -64.957031 51.78125 -64.21875 C 52.445312 -63.476562 52.84375 -62.425781 52.96875 -61.0625 C 53.1875 -58.8125 52.78125 -56.523438 51.75 -54.203125 C 50.71875 -51.890625 49.6875 -48.914062 48.65625 -45.28125 C 47.070312 -40.675781 46.648438 -37.238281 47.390625 -34.96875 C 48.128906 -32.695312 49.816406 -31.6875 52.453125 -31.9375 C 54.546875 -32.132812 56.296875 -32.84375 57.703125 -34.0625 C 59.117188 -35.28125 60.335938 -36.910156 61.359375 -38.953125 C 61.898438 -39.972656 62.6875 -40.390625 63.71875 -40.203125 C 64.75 -40.023438 65.640625 -39.5625 66.390625 -38.8125 C 67.148438 -38.070312 67.367188 -37.289062 67.046875 -36.46875 C 65.867188 -33.53125 64.617188 -30.28125 63.296875 -26.71875 C 61.972656 -23.164062 60.457031 -19.734375 58.75 -16.421875 C 57.050781 -13.117188 55.015625 -10.328125 52.640625 -8.046875 C 50.273438 -5.765625 47.414062 -4.460938 44.0625 -4.140625 C 39.894531 -3.753906 36.789062 -5.160156 34.75 -8.359375 C 32.71875 -11.554688 31.820312 -15.671875 32.0625 -20.703125 L 31.59375 -20.65625 C 29.664062 -15.550781 27.097656 -11.128906 23.890625 -7.390625 C 20.691406 -3.660156 16.96875 -1.597656 12.71875 -1.203125 Z M 22.375 -27.171875 C 24.457031 -27.367188 26.222656 -28.140625 27.671875 -29.484375 C 29.128906 -30.835938 30.21875 -32.410156 30.9375 -34.203125 C 31.65625 -36.003906 31.929688 -37.753906 31.765625 -39.453125 C 31.578125 -41.441406 30.867188 -42.941406 29.640625 -43.953125 C 28.421875 -44.972656 26.851562 -45.390625 24.9375 -45.203125 C 22.851562 -45.003906 21.101562 -44.273438 19.6875 -43.015625 C 18.269531 -41.753906 17.222656 -40.222656 16.546875 -38.421875 C 15.867188 -36.628906 15.613281 -34.851562 15.78125 -33.09375 C 15.96875 -31.09375 16.65625 -29.5625 17.84375 -28.5 C 19.03125 -27.4375 20.539062 -26.992188 22.375 -27.171875 Z M 22.375 -27.171875 "/></g></g><g style="fill:#5e17eb;fill-opacity:1;"><g transform="translate(216.410766, 157.804012)"><path style="stroke:none" d="M 12.125 -1.140625 C 7.632812 -0.722656 4.195312 -1.789062 1.8125 -4.34375 C -0.5625 -6.90625 -1.957031 -10.40625 -2.375 -14.84375 C -2.789062 -19.289062 -2.351562 -24.160156 -1.0625 -29.453125 C -0.320312 -32.578125 0.519531 -35.960938 1.46875 -39.609375 C 2.425781 -43.253906 3.46875 -47.226562 4.59375 -51.53125 C 2.832031 -51.363281 1.445312 -51.695312 0.4375 -52.53125 C -0.5625 -53.375 -1.257812 -54.398438 -1.65625 -55.609375 C -2.050781 -56.828125 -2.148438 -57.90625 -1.953125 -58.84375 C -1.765625 -59.789062 -1.3125 -60.296875 -0.59375 -60.359375 C 2.925781 -60.691406 5.59375 -61.929688 7.40625 -64.078125 C 9.21875 -66.222656 10.425781 -68.421875 11.03125 -70.671875 C 12.132812 -74.328125 13.320312 -76.675781 14.59375 -77.71875 C 15.875 -78.769531 17.273438 -79.367188 18.796875 -79.515625 C 21.035156 -79.722656 22.519531 -78.910156 23.25 -77.078125 C 23.988281 -75.253906 23.617188 -72.375 22.140625 -68.4375 C 21.429688 -66.4375 21.082031 -64.929688 21.09375 -63.921875 C 21.113281 -62.910156 21.6875 -62.457031 22.8125 -62.5625 L 29.046875 -63.15625 C 29.847656 -63.226562 30.421875 -62.710938 30.765625 -61.609375 C 31.117188 -60.515625 31.222656 -59.234375 31.078125 -57.765625 C 30.929688 -56.296875 30.53125 -54.96875 29.875 -53.78125 C 29.226562 -52.59375 28.300781 -51.941406 27.09375 -51.828125 C 23.414062 -51.484375 20.707031 -51.085938 18.96875 -50.640625 C 17.238281 -50.191406 16.066406 -49.375 15.453125 -48.1875 C 14.835938 -47 14.257812 -45.007812 13.71875 -42.21875 C 12.820312 -37.9375 13.304688 -34.628906 15.171875 -32.296875 C 17.046875 -29.972656 19.75 -28.972656 23.28125 -29.296875 C 25.675781 -29.523438 27.765625 -30.269531 29.546875 -31.53125 C 31.328125 -32.789062 32.734375 -34.398438 33.765625 -36.359375 C 34.304688 -37.378906 35.085938 -37.796875 36.109375 -37.609375 C 37.128906 -37.429688 38.019531 -36.96875 38.78125 -36.21875 C 39.550781 -35.476562 39.769531 -34.691406 39.4375 -33.859375 C 38.84375 -32.429688 38.054688 -30.457031 37.078125 -27.9375 C 36.109375 -25.425781 34.914062 -22.691406 33.5 -19.734375 C 32.082031 -16.785156 30.367188 -13.960938 28.359375 -11.265625 C 26.359375 -8.578125 24.007812 -6.296875 21.3125 -4.421875 C 18.625 -2.554688 15.5625 -1.460938 12.125 -1.140625 Z M 12.125 -1.140625 "/></g></g><g style="fill:#5e17eb;fill-opacity:1;"><g transform="translate(250.97443, 154.551448)"><path style="stroke:none" d="M 22.578125 -2.125 C 17.773438 -1.675781 13.726562 -2.382812 10.4375 -4.25 C 7.15625 -6.125 4.609375 -8.769531 2.796875 -12.1875 C 0.984375 -15.601562 -0.101562 -19.453125 -0.46875 -23.734375 C -0.84375 -28.023438 -0.507812 -32.378906 0.53125 -36.796875 C 1.570312 -41.222656 3.285156 -45.34375 5.671875 -49.15625 C 8.054688 -52.96875 11.085938 -56.132812 14.765625 -58.65625 C 18.453125 -61.1875 22.734375 -62.679688 27.609375 -63.140625 C 31.367188 -63.492188 34.492188 -63.082031 36.984375 -61.90625 C 39.472656 -60.726562 41.382812 -59.03125 42.71875 -56.8125 C 44.0625 -54.59375 44.859375 -52.164062 45.109375 -49.53125 C 45.378906 -46.644531 44.847656 -43.6875 43.515625 -40.65625 C 42.191406 -37.625 40.175781 -35.035156 37.46875 -32.890625 C 34.769531 -30.742188 31.457031 -29.488281 27.53125 -29.125 C 25.851562 -28.96875 24.203125 -28.929688 22.578125 -29.015625 C 20.953125 -29.097656 19.421875 -29.472656 17.984375 -30.140625 C 17.566406 -30.347656 17.128906 -30.328125 16.671875 -30.078125 C 16.210938 -29.835938 16.019531 -29.316406 16.09375 -28.515625 C 16.289062 -26.429688 17.660156 -24.960938 20.203125 -24.109375 C 22.742188 -23.265625 25.726562 -23.003906 29.15625 -23.328125 C 33.238281 -23.710938 37.363281 -25.148438 41.53125 -27.640625 C 45.707031 -30.128906 48.957031 -33.582031 51.28125 -38 C 51.820312 -39.019531 52.625 -39.441406 53.6875 -39.265625 C 54.757812 -39.085938 55.675781 -38.625 56.4375 -37.875 C 57.195312 -37.132812 57.375 -36.347656 56.96875 -35.515625 C 52.59375 -25.253906 47.503906 -17.285156 41.703125 -11.609375 C 35.910156 -5.941406 29.535156 -2.78125 22.578125 -2.125 Z M 23.546875 -37.828125 C 25.867188 -38.046875 27.625 -38.957031 28.8125 -40.5625 C 30 -42.164062 30.519531 -43.726562 30.375 -45.25 C 30.25 -46.613281 29.675781 -47.726562 28.65625 -48.59375 C 27.644531 -49.46875 26.222656 -49.820312 24.390625 -49.65625 C 22.066406 -49.4375 20.289062 -48.539062 19.0625 -46.96875 C 17.84375 -45.394531 17.3125 -43.8125 17.46875 -42.21875 C 17.582031 -40.925781 18.144531 -39.828125 19.15625 -38.921875 C 20.164062 -38.015625 21.628906 -37.648438 23.546875 -37.828125 Z M 23.546875 -37.828125 "/></g></g><g style="fill:#a548ff;fill-opacity:0.302;"><g transform="translate(56.089379, 280.567305)"><path style="stroke:none" d="M 123.78125 -44.828125 C 124.257812 -45.753906 124.867188 -46.113281 125.609375 -45.90625 C 126.359375 -45.695312 127.085938 -45.238281 127.796875 -44.53125 C 128.515625 -43.832031 129.070312 -43.101562 129.46875 -42.34375 C 128.789062 -40.976562 128.003906 -39.019531 127.109375 -36.46875 C 126.222656 -33.925781 125.128906 -31.203125 123.828125 -28.296875 C 122.523438 -25.390625 120.953125 -22.578125 119.109375 -19.859375 C 117.265625 -17.148438 115.113281 -14.867188 112.65625 -13.015625 C 110.207031 -11.171875 107.34375 -10.097656 104.0625 -9.796875 C 99.65625 -9.378906 96.164062 -10.625 93.59375 -13.53125 C 91.03125 -16.4375 89.488281 -20.613281 88.96875 -26.0625 C 88.644531 -29.5 88.75 -32.894531 89.28125 -36.25 C 89.820312 -39.613281 90.515625 -42.785156 91.359375 -45.765625 C 92.210938 -48.753906 92.957031 -51.363281 93.59375 -53.59375 C 94.226562 -55.832031 94.488281 -57.554688 94.375 -58.765625 C 94.207031 -60.523438 93.363281 -61.335938 91.84375 -61.203125 C 90.800781 -61.097656 89.804688 -60.492188 88.859375 -59.390625 C 87.910156 -58.296875 86.957031 -56.390625 86 -53.671875 C 85.050781 -50.960938 84.035156 -47.15625 82.953125 -42.25 C 81.878906 -37.34375 80.742188 -31.003906 79.546875 -23.234375 C 78.898438 -18.972656 77.648438 -16.144531 75.796875 -14.75 C 73.953125 -13.363281 72.03125 -12.578125 70.03125 -12.390625 C 66.269531 -12.035156 63.6875 -12.4375 62.28125 -13.59375 C 60.882812 -14.757812 60.070312 -16.582031 59.84375 -19.0625 C 59.625 -21.3125 59.75 -23.804688 60.21875 -26.546875 C 60.6875 -29.296875 61.222656 -32.191406 61.828125 -35.234375 C 62.429688 -38.273438 62.953125 -41.332031 63.390625 -44.40625 C 63.828125 -47.476562 63.921875 -50.378906 63.671875 -53.109375 C 63.453125 -55.421875 63.023438 -56.929688 62.390625 -57.640625 C 61.753906 -58.347656 61.039062 -58.664062 60.25 -58.59375 C 58.476562 -58.425781 57.457031 -57.195312 57.1875 -54.90625 C 55.769531 -41.695312 53.09375 -30.890625 49.15625 -22.484375 C 45.226562 -14.078125 40.410156 -7.789062 34.703125 -3.625 C 29.003906 0.539062 22.753906 2.945312 15.953125 3.59375 C 11.316406 4.03125 7.363281 3.410156 4.09375 1.734375 C 0.832031 0.0546875 -1.703125 -2.265625 -3.515625 -5.234375 C -5.335938 -8.210938 -6.40625 -11.34375 -6.71875 -14.625 C -7.03125 -17.90625 -6.664062 -21.109375 -5.625 -24.234375 C -4.582031 -27.359375 -2.945312 -29.972656 -0.71875 -32.078125 C 1.5 -34.179688 4.210938 -35.382812 7.421875 -35.6875 C 8.609375 -35.800781 9.25 -35.378906 9.34375 -34.421875 C 9.59375 -31.785156 10.953125 -29.753906 13.421875 -28.328125 C 15.898438 -26.898438 18.863281 -26.347656 22.3125 -26.671875 C 25.675781 -26.992188 28.757812 -28.113281 31.5625 -30.03125 C 34.375 -31.957031 36.851562 -34.347656 39 -37.203125 C 41.15625 -40.066406 42.960938 -43.179688 44.421875 -46.546875 C 45.878906 -49.921875 46.914062 -53.253906 47.53125 -56.546875 C 48.15625 -59.835938 48.347656 -62.757812 48.109375 -65.3125 C 47.804688 -68.519531 46.832031 -70.890625 45.1875 -72.421875 C 43.550781 -73.960938 41.453125 -74.613281 38.890625 -74.375 C 36.015625 -74.101562 33.550781 -72.800781 31.5 -70.46875 C 29.457031 -68.132812 28.613281 -65.09375 28.96875 -61.34375 C 29.164062 -59.25 29.910156 -57.535156 31.203125 -56.203125 C 32.503906 -54.878906 34.035156 -54.300781 35.796875 -54.46875 C 36.660156 -52.9375 36.722656 -50.984375 35.984375 -48.609375 C 35.242188 -46.234375 33.773438 -44.078125 31.578125 -42.140625 C 29.378906 -40.203125 26.484375 -39.0625 22.890625 -38.71875 C 18.171875 -38.28125 14.082031 -39.632812 10.625 -42.78125 C 7.175781 -45.925781 5.191406 -50.296875 4.671875 -55.890625 C 4.242188 -60.453125 4.753906 -64.878906 6.203125 -69.171875 C 7.660156 -73.472656 9.976562 -77.382812 13.15625 -80.90625 C 16.332031 -84.4375 20.273438 -87.351562 24.984375 -89.65625 C 29.691406 -91.96875 35.046875 -93.40625 41.046875 -93.96875 C 51.535156 -94.957031 59.914062 -92.757812 66.1875 -87.375 C 72.46875 -81.988281 76.597656 -74.335938 78.578125 -64.421875 C 80.179688 -68.765625 82.179688 -73.03125 84.578125 -77.21875 C 86.972656 -81.40625 89.644531 -85.191406 92.59375 -88.578125 C 95.539062 -91.960938 98.644531 -94.738281 101.90625 -96.90625 C 105.175781 -99.070312 108.492188 -100.3125 111.859375 -100.625 C 116.503906 -101.0625 119.898438 -100.128906 122.046875 -97.828125 C 124.203125 -95.523438 125.4375 -92.734375 125.75 -89.453125 C 125.96875 -87.046875 125.75 -84.640625 125.09375 -82.234375 C 124.4375 -79.835938 123.5 -77.8125 122.28125 -76.15625 C 121.0625 -74.507812 119.734375 -73.617188 118.296875 -73.484375 C 117.410156 -73.398438 116.628906 -73.550781 115.953125 -73.9375 C 115.273438 -74.320312 114.535156 -74.476562 113.734375 -74.40625 C 112.535156 -74.289062 111.476562 -73.460938 110.5625 -71.921875 C 109.65625 -70.378906 108.910156 -68.429688 108.328125 -66.078125 C 107.742188 -63.722656 107.289062 -61.238281 106.96875 -58.625 C 106.65625 -56.007812 106.445312 -53.523438 106.34375 -51.171875 C 106.238281 -48.828125 106.253906 -46.9375 106.390625 -45.5 C 106.628906 -43.019531 107.363281 -41.046875 108.59375 -39.578125 C 109.820312 -38.117188 111.796875 -37.519531 114.515625 -37.78125 C 118.347656 -38.132812 121.4375 -40.484375 123.78125 -44.828125 Z M 123.78125 -44.828125 "/></g></g><g style="fill:#a548ff;fill-opacity:0.302;"><g transform="translate(180.662362, 268.844546)"><path style="stroke:none" d="M 12.71875 -1.203125 C 8.632812 -0.816406 5.394531 -2.203125 3 -5.359375 C 0.601562 -8.523438 -0.84375 -12.789062 -1.34375 -18.15625 C -1.664062 -21.507812 -1.582031 -25.125 -1.09375 -29 C -0.613281 -32.882812 0.269531 -36.742188 1.5625 -40.578125 C 2.863281 -44.421875 4.613281 -47.960938 6.8125 -51.203125 C 9.007812 -54.441406 11.664062 -57.113281 14.78125 -59.21875 C 17.894531 -61.320312 21.53125 -62.570312 25.6875 -62.96875 C 28.082031 -63.1875 29.960938 -63.132812 31.328125 -62.8125 C 32.691406 -62.5 33.738281 -62.054688 34.46875 -61.484375 C 35.207031 -60.910156 35.835938 -60.425781 36.359375 -60.03125 C 36.890625 -59.632812 37.554688 -59.472656 38.359375 -59.546875 C 39.710938 -59.679688 40.769531 -60.164062 41.53125 -61 C 42.300781 -61.84375 43.171875 -62.691406 44.140625 -63.546875 C 45.117188 -64.410156 46.53125 -64.925781 48.375 -65.09375 C 49.976562 -65.25 51.113281 -64.957031 51.78125 -64.21875 C 52.445312 -63.476562 52.84375 -62.425781 52.96875 -61.0625 C 53.1875 -58.8125 52.78125 -56.523438 51.75 -54.203125 C 50.71875 -51.890625 49.6875 -48.914062 48.65625 -45.28125 C 47.070312 -40.675781 46.648438 -37.238281 47.390625 -34.96875 C 48.128906 -32.695312 49.816406 -31.6875 52.453125 -31.9375 C 54.546875 -32.132812 56.296875 -32.84375 57.703125 -34.0625 C 59.117188 -35.28125 60.335938 -36.910156 61.359375 -38.953125 C 61.898438 -39.972656 62.6875 -40.390625 63.71875 -40.203125 C 64.75 -40.023438 65.640625 -39.5625 66.390625 -38.8125 C 67.148438 -38.070312 67.367188 -37.289062 67.046875 -36.46875 C 65.867188 -33.53125 64.617188 -30.28125 63.296875 -26.71875 C 61.972656 -23.164062 60.457031 -19.734375 58.75 -16.421875 C 57.050781 -13.117188 55.015625 -10.328125 52.640625 -8.046875 C 50.273438 -5.765625 47.414062 -4.460938 44.0625 -4.140625 C 39.894531 -3.753906 36.789062 -5.160156 34.75 -8.359375 C 32.71875 -11.554688 31.820312 -15.671875 32.0625 -20.703125 L 31.59375 -20.65625 C 29.664062 -15.550781 27.097656 -11.128906 23.890625 -7.390625 C 20.691406 -3.660156 16.96875 -1.597656 12.71875 -1.203125 Z M 22.375 -27.171875 C 24.457031 -27.367188 26.222656 -28.140625 27.671875 -29.484375 C 29.128906 -30.835938 30.21875 -32.410156 30.9375 -34.203125 C 31.65625 -36.003906 31.929688 -37.753906 31.765625 -39.453125 C 31.578125 -41.441406 30.867188 -42.941406 29.640625 -43.953125 C 28.421875 -44.972656 26.851562 -45.390625 24.9375 -45.203125 C 22.851562 -45.003906 21.101562 -44.273438 19.6875 -43.015625 C 18.269531 -41.753906 17.222656 -40.222656 16.546875 -38.421875 C 15.867188 -36.628906 15.613281 -34.851562 15.78125 -33.09375 C 15.96875 -31.09375 16.65625 -29.5625 17.84375 -28.5 C 19.03125 -27.4375 20.539062 -26.992188 22.375 -27.171875 Z M 22.375 -27.171875 "/></g></g><g style="fill:#a548ff;fill-opacity:0.302;"><g transform="translate(242.828889, 262.994456)"><path style="stroke:none" d="M 12.125 -1.140625 C 7.632812 -0.722656 4.195312 -1.789062 1.8125 -4.34375 C -0.5625 -6.90625 -1.957031 -10.40625 -2.375 -14.84375 C -2.789062 -19.289062 -2.351562 -24.160156 -1.0625 -29.453125 C -0.320312 -32.578125 0.519531 -35.960938 1.46875 -39.609375 C 2.425781 -43.253906 3.46875 -47.226562 4.59375 -51.53125 C 2.832031 -51.363281 1.445312 -51.695312 0.4375 -52.53125 C -0.5625 -53.375 -1.257812 -54.398438 -1.65625 -55.609375 C -2.050781 -56.828125 -2.148438 -57.90625 -1.953125 -58.84375 C -1.765625 -59.789062 -1.3125 -60.296875 -0.59375 -60.359375 C 2.925781 -60.691406 5.59375 -61.929688 7.40625 -64.078125 C 9.21875 -66.222656 10.425781 -68.421875 11.03125 -70.671875 C 12.132812 -74.328125 13.320312 -76.675781 14.59375 -77.71875 C 15.875 -78.769531 17.273438 -79.367188 18.796875 -79.515625 C 21.035156 -79.722656 22.519531 -78.910156 23.25 -77.078125 C 23.988281 -75.253906 23.617188 -72.375 22.140625 -68.4375 C 21.429688 -66.4375 21.082031 -64.929688 21.09375 -63.921875 C 21.113281 -62.910156 21.6875 -62.457031 22.8125 -62.5625 L 29.046875 -63.15625 C 29.847656 -63.226562 30.421875 -62.710938 30.765625 -61.609375 C 31.117188 -60.515625 31.222656 -59.234375 31.078125 -57.765625 C 30.929688 -56.296875 30.53125 -54.96875 29.875 -53.78125 C 29.226562 -52.59375 28.300781 -51.941406 27.09375 -51.828125 C 23.414062 -51.484375 20.707031 -51.085938 18.96875 -50.640625 C 17.238281 -50.191406 16.066406 -49.375 15.453125 -48.1875 C 14.835938 -47 14.257812 -45.007812 13.71875 -42.21875 C 12.820312 -37.9375 13.304688 -34.628906 15.171875 -32.296875 C 17.046875 -29.972656 19.75 -28.972656 23.28125 -29.296875 C 25.675781 -29.523438 27.765625 -30.269531 29.546875 -31.53125 C 31.328125 -32.789062 32.734375 -34.398438 33.765625 -36.359375 C 34.304688 -37.378906 35.085938 -37.796875 36.109375 -37.609375 C 37.128906 -37.429688 38.019531 -36.96875 38.78125 -36.21875 C 39.550781 -35.476562 39.769531 -34.691406 39.4375 -33.859375 C 38.84375 -32.429688 38.054688 -30.457031 37.078125 -27.9375 C 36.109375 -25.425781 34.914062 -22.691406 33.5 -19.734375 C 32.082031 -16.785156 30.367188 -13.960938 28.359375 -11.265625 C 26.359375 -8.578125 24.007812 -6.296875 21.3125 -4.421875 C 18.625 -2.554688 15.5625 -1.460938 12.125 -1.140625 Z M 12.125 -1.140625 "/></g></g><g style="fill:#a548ff;fill-opacity:0.302;"><g transform="translate(277.392553, 259.741893)"><path style="stroke:none" d="M 22.578125 -2.125 C 17.773438 -1.675781 13.726562 -2.382812 10.4375 -4.25 C 7.15625 -6.125 4.609375 -8.769531 2.796875 -12.1875 C 0.984375 -15.601562 -0.101562 -19.453125 -0.46875 -23.734375 C -0.84375 -28.023438 -0.507812 -32.378906 0.53125 -36.796875 C 1.570312 -41.222656 3.285156 -45.34375 5.671875 -49.15625 C 8.054688 -52.96875 11.085938 -56.132812 14.765625 -58.65625 C 18.453125 -61.1875 22.734375 -62.679688 27.609375 -63.140625 C 31.367188 -63.492188 34.492188 -63.082031 36.984375 -61.90625 C 39.472656 -60.726562 41.382812 -59.03125 42.71875 -56.8125 C 44.0625 -54.59375 44.859375 -52.164062 45.109375 -49.53125 C 45.378906 -46.644531 44.847656 -43.6875 43.515625 -40.65625 C 42.191406 -37.625 40.175781 -35.035156 37.46875 -32.890625 C 34.769531 -30.742188 31.457031 -29.488281 27.53125 -29.125 C 25.851562 -28.96875 24.203125 -28.929688 22.578125 -29.015625 C 20.953125 -29.097656 19.421875 -29.472656 17.984375 -30.140625 C 17.566406 -30.347656 17.128906 -30.328125 16.671875 -30.078125 C 16.210938 -29.835938 16.019531 -29.316406 16.09375 -28.515625 C 16.289062 -26.429688 17.660156 -24.960938 20.203125 -24.109375 C 22.742188 -23.265625 25.726562 -23.003906 29.15625 -23.328125 C 33.238281 -23.710938 37.363281 -25.148438 41.53125 -27.640625 C 45.707031 -30.128906 48.957031 -33.582031 51.28125 -38 C 51.820312 -39.019531 52.625 -39.441406 53.6875 -39.265625 C 54.757812 -39.085938 55.675781 -38.625 56.4375 -37.875 C 57.195312 -37.132812 57.375 -36.347656 56.96875 -35.515625 C 52.59375 -25.253906 47.503906 -17.285156 41.703125 -11.609375 C 35.910156 -5.941406 29.535156 -2.78125 22.578125 -2.125 Z M 23.546875 -37.828125 C 25.867188 -38.046875 27.625 -38.957031 28.8125 -40.5625 C 30 -42.164062 30.519531 -43.726562 30.375 -45.25 C 30.25 -46.613281 29.675781 -47.726562 28.65625 -48.59375 C 27.644531 -49.46875 26.222656 -49.820312 24.390625 -49.65625 C 22.066406 -49.4375 20.289062 -48.539062 19.0625 -46.96875 C 17.84375 -45.394531 17.3125 -43.8125 17.46875 -42.21875 C 17.582031 -40.925781 18.144531 -39.828125 19.15625 -38.921875 C 20.164062 -38.015625 21.628906 -37.648438 23.546875 -37.828125 Z M 23.546875 -37.828125 "/></g></g><g style="fill:#a548ff;fill-opacity:0.502;"><g transform="translate(54.087226, 276.346197)"><path style="stroke:none" d="M 123.78125 -44.828125 C 124.257812 -45.753906 124.867188 -46.113281 125.609375 -45.90625 C 126.359375 -45.695312 127.085938 -45.238281 127.796875 -44.53125 C 128.515625 -43.832031 129.070312 -43.101562 129.46875 -42.34375 C 128.789062 -40.976562 128.003906 -39.019531 127.109375 -36.46875 C 126.222656 -33.925781 125.128906 -31.203125 123.828125 -28.296875 C 122.523438 -25.390625 120.953125 -22.578125 119.109375 -19.859375 C 117.265625 -17.148438 115.113281 -14.867188 112.65625 -13.015625 C 110.207031 -11.171875 107.34375 -10.097656 104.0625 -9.796875 C 99.65625 -9.378906 96.164062 -10.625 93.59375 -13.53125 C 91.03125 -16.4375 89.488281 -20.613281 88.96875 -26.0625 C 88.644531 -29.5 88.75 -32.894531 89.28125 -36.25 C 89.820312 -39.613281 90.515625 -42.785156 91.359375 -45.765625 C 92.210938 -48.753906 92.957031 -51.363281 93.59375 -53.59375 C 94.226562 -55.832031 94.488281 -57.554688 94.375 -58.765625 C 94.207031 -60.523438 93.363281 -61.335938 91.84375 -61.203125 C 90.800781 -61.097656 89.804688 -60.492188 88.859375 -59.390625 C 87.910156 -58.296875 86.957031 -56.390625 86 -53.671875 C 85.050781 -50.960938 84.035156 -47.15625 82.953125 -42.25 C 81.878906 -37.34375 80.742188 -31.003906 79.546875 -23.234375 C 78.898438 -18.972656 77.648438 -16.144531 75.796875 -14.75 C 73.953125 -13.363281 72.03125 -12.578125 70.03125 -12.390625 C 66.269531 -12.035156 63.6875 -12.4375 62.28125 -13.59375 C 60.882812 -14.757812 60.070312 -16.582031 59.84375 -19.0625 C 59.625 -21.3125 59.75 -23.804688 60.21875 -26.546875 C 60.6875 -29.296875 61.222656 -32.191406 61.828125 -35.234375 C 62.429688 -38.273438 62.953125 -41.332031 63.390625 -44.40625 C 63.828125 -47.476562 63.921875 -50.378906 63.671875 -53.109375 C 63.453125 -55.421875 63.023438 -56.929688 62.390625 -57.640625 C 61.753906 -58.347656 61.039062 -58.664062 60.25 -58.59375 C 58.476562 -58.425781 57.457031 -57.195312 57.1875 -54.90625 C 55.769531 -41.695312 53.09375 -30.890625 49.15625 -22.484375 C 45.226562 -14.078125 40.410156 -7.789062 34.703125 -3.625 C 29.003906 0.539062 22.753906 2.945312 15.953125 3.59375 C 11.316406 4.03125 7.363281 3.410156 4.09375 1.734375 C 0.832031 0.0546875 -1.703125 -2.265625 -3.515625 -5.234375 C -5.335938 -8.210938 -6.40625 -11.34375 -6.71875 -14.625 C -7.03125 -17.90625 -6.664062 -21.109375 -5.625 -24.234375 C -4.582031 -27.359375 -2.945312 -29.972656 -0.71875 -32.078125 C 1.5 -34.179688 4.210938 -35.382812 7.421875 -35.6875 C 8.609375 -35.800781 9.25 -35.378906 9.34375 -34.421875 C 9.59375 -31.785156 10.953125 -29.753906 13.421875 -28.328125 C 15.898438 -26.898438 18.863281 -26.347656 22.3125 -26.671875 C 25.675781 -26.992188 28.757812 -28.113281 31.5625 -30.03125 C 34.375 -31.957031 36.851562 -34.347656 39 -37.203125 C 41.15625 -40.066406 42.960938 -43.179688 44.421875 -46.546875 C 45.878906 -49.921875 46.914062 -53.253906 47.53125 -56.546875 C 48.15625 -59.835938 48.347656 -62.757812 48.109375 -65.3125 C 47.804688 -68.519531 46.832031 -70.890625 45.1875 -72.421875 C 43.550781 -73.960938 41.453125 -74.613281 38.890625 -74.375 C 36.015625 -74.101562 33.550781 -72.800781 31.5 -70.46875 C 29.457031 -68.132812 28.613281 -65.09375 28.96875 -61.34375 C 29.164062 -59.25 29.910156 -57.535156 31.203125 -56.203125 C 32.503906 -54.878906 34.035156 -54.300781 35.796875 -54.46875 C 36.660156 -52.9375 36.722656 -50.984375 35.984375 -48.609375 C 35.242188 -46.234375 33.773438 -44.078125 31.578125 -42.140625 C 29.378906 -40.203125 26.484375 -39.0625 22.890625 -38.71875 C 18.171875 -38.28125 14.082031 -39.632812 10.625 -42.78125 C 7.175781 -45.925781 5.191406 -50.296875 4.671875 -55.890625 C 4.242188 -60.453125 4.753906 -64.878906 6.203125 -69.171875 C 7.660156 -73.472656 9.976562 -77.382812 13.15625 -80.90625 C 16.332031 -84.4375 20.273438 -87.351562 24.984375 -89.65625 C 29.691406 -91.96875 35.046875 -93.40625 41.046875 -93.96875 C 51.535156 -94.957031 59.914062 -92.757812 66.1875 -87.375 C 72.46875 -81.988281 76.597656 -74.335938 78.578125 -64.421875 C 80.179688 -68.765625 82.179688 -73.03125 84.578125 -77.21875 C 86.972656 -81.40625 89.644531 -85.191406 92.59375 -88.578125 C 95.539062 -91.960938 98.644531 -94.738281 101.90625 -96.90625 C 105.175781 -99.070312 108.492188 -100.3125 111.859375 -100.625 C 116.503906 -101.0625 119.898438 -100.128906 122.046875 -97.828125 C 124.203125 -95.523438 125.4375 -92.734375 125.75 -89.453125 C 125.96875 -87.046875 125.75 -84.640625 125.09375 -82.234375 C 124.4375 -79.835938 123.5 -77.8125 122.28125 -76.15625 C 121.0625 -74.507812 119.734375 -73.617188 118.296875 -73.484375 C 117.410156 -73.398438 116.628906 -73.550781 115.953125 -73.9375 C 115.273438 -74.320312 114.535156 -74.476562 113.734375 -74.40625 C 112.535156 -74.289062 111.476562 -73.460938 110.5625 -71.921875 C 109.65625 -70.378906 108.910156 -68.429688 108.328125 -66.078125 C 107.742188 -63.722656 107.289062 -61.238281 106.96875 -58.625 C 106.65625 -56.007812 106.445312 -53.523438 106.34375 -51.171875 C 106.238281 -48.828125 106.253906 -46.9375 106.390625 -45.5 C 106.628906 -43.019531 107.363281 -41.046875 108.59375 -39.578125 C 109.820312 -38.117188 111.796875 -37.519531 114.515625 -37.78125 C 118.347656 -38.132812 121.4375 -40.484375 123.78125 -44.828125 Z M 123.78125 -44.828125 "/></g></g><g style="fill:#a548ff;fill-opacity:0.502;"><g transform="translate(178.660209, 264.623439)"><path style="stroke:none" d="M 12.71875 -1.203125 C 8.632812 -0.816406 5.394531 -2.203125 3 -5.359375 C 0.601562 -8.523438 -0.84375 -12.789062 -1.34375 -18.15625 C -1.664062 -21.507812 -1.582031 -25.125 -1.09375 -29 C -0.613281 -32.882812 0.269531 -36.742188 1.5625 -40.578125 C 2.863281 -44.421875 4.613281 -47.960938 6.8125 -51.203125 C 9.007812 -54.441406 11.664062 -57.113281 14.78125 -59.21875 C 17.894531 -61.320312 21.53125 -62.570312 25.6875 -62.96875 C 28.082031 -63.1875 29.960938 -63.132812 31.328125 -62.8125 C 32.691406 -62.5 33.738281 -62.054688 34.46875 -61.484375 C 35.207031 -60.910156 35.835938 -60.425781 36.359375 -60.03125 C 36.890625 -59.632812 37.554688 -59.472656 38.359375 -59.546875 C 39.710938 -59.679688 40.769531 -60.164062 41.53125 -61 C 42.300781 -61.84375 43.171875 -62.691406 44.140625 -63.546875 C 45.117188 -64.410156 46.53125 -64.925781 48.375 -65.09375 C 49.976562 -65.25 51.113281 -64.957031 51.78125 -64.21875 C 52.445312 -63.476562 52.84375 -62.425781 52.96875 -61.0625 C 53.1875 -58.8125 52.78125 -56.523438 51.75 -54.203125 C 50.71875 -51.890625 49.6875 -48.914062 48.65625 -45.28125 C 47.070312 -40.675781 46.648438 -37.238281 47.390625 -34.96875 C 48.128906 -32.695312 49.816406 -31.6875 52.453125 -31.9375 C 54.546875 -32.132812 56.296875 -32.84375 57.703125 -34.0625 C 59.117188 -35.28125 60.335938 -36.910156 61.359375 -38.953125 C 61.898438 -39.972656 62.6875 -40.390625 63.71875 -40.203125 C 64.75 -40.023438 65.640625 -39.5625 66.390625 -38.8125 C 67.148438 -38.070312 67.367188 -37.289062 67.046875 -36.46875 C 65.867188 -33.53125 64.617188 -30.28125 63.296875 -26.71875 C 61.972656 -23.164062 60.457031 -19.734375 58.75 -16.421875 C 57.050781 -13.117188 55.015625 -10.328125 52.640625 -8.046875 C 50.273438 -5.765625 47.414062 -4.460938 44.0625 -4.140625 C 39.894531 -3.753906 36.789062 -5.160156 34.75 -8.359375 C 32.71875 -11.554688 31.820312 -15.671875 32.0625 -20.703125 L 31.59375 -20.65625 C 29.664062 -15.550781 27.097656 -11.128906 23.890625 -7.390625 C 20.691406 -3.660156 16.96875 -1.597656 12.71875 -1.203125 Z M 22.375 -27.171875 C 24.457031 -27.367188 26.222656 -28.140625 27.671875 -29.484375 C 29.128906 -30.835938 30.21875 -32.410156 30.9375 -34.203125 C 31.65625 -36.003906 31.929688 -37.753906 31.765625 -39.453125 C 31.578125 -41.441406 30.867188 -42.941406 29.640625 -43.953125 C 28.421875 -44.972656 26.851562 -45.390625 24.9375 -45.203125 C 22.851562 -45.003906 21.101562 -44.273438 19.6875 -43.015625 C 18.269531 -41.753906 17.222656 -40.222656 16.546875 -38.421875 C 15.867188 -36.628906 15.613281 -34.851562 15.78125 -33.09375 C 15.96875 -31.09375 16.65625 -29.5625 17.84375 -28.5 C 19.03125 -27.4375 20.539062 -26.992188 22.375 -27.171875 Z M 22.375 -27.171875 "/></g></g><g style="fill:#a548ff;fill-opacity:0.502;"><g transform="translate(240.826736, 258.773348)"><path style="stroke:none" d="M 12.125 -1.140625 C 7.632812 -0.722656 4.195312 -1.789062 1.8125 -4.34375 C -0.5625 -6.90625 -1.957031 -10.40625 -2.375 -14.84375 C -2.789062 -19.289062 -2.351562 -24.160156 -1.0625 -29.453125 C -0.320312 -32.578125 0.519531 -35.960938 1.46875 -39.609375 C 2.425781 -43.253906 3.46875 -47.226562 4.59375 -51.53125 C 2.832031 -51.363281 1.445312 -51.695312 0.4375 -52.53125 C -0.5625 -53.375 -1.257812 -54.398438 -1.65625 -55.609375 C -2.050781 -56.828125 -2.148438 -57.90625 -1.953125 -58.84375 C -1.765625 -59.789062 -1.3125 -60.296875 -0.59375 -60.359375 C 2.925781 -60.691406 5.59375 -61.929688 7.40625 -64.078125 C 9.21875 -66.222656 10.425781 -68.421875 11.03125 -70.671875 C 12.132812 -74.328125 13.320312 -76.675781 14.59375 -77.71875 C 15.875 -78.769531 17.273438 -79.367188 18.796875 -79.515625 C 21.035156 -79.722656 22.519531 -78.910156 23.25 -77.078125 C 23.988281 -75.253906 23.617188 -72.375 22.140625 -68.4375 C 21.429688 -66.4375 21.082031 -64.929688 21.09375 -63.921875 C 21.113281 -62.910156 21.6875 -62.457031 22.8125 -62.5625 L 29.046875 -63.15625 C 29.847656 -63.226562 30.421875 -62.710938 30.765625 -61.609375 C 31.117188 -60.515625 31.222656 -59.234375 31.078125 -57.765625 C 30.929688 -56.296875 30.53125 -54.96875 29.875 -53.78125 C 29.226562 -52.59375 28.300781 -51.941406 27.09375 -51.828125 C 23.414062 -51.484375 20.707031 -51.085938 18.96875 -50.640625 C 17.238281 -50.191406 16.066406 -49.375 15.453125 -48.1875 C 14.835938 -47 14.257812 -45.007812 13.71875 -42.21875 C 12.820312 -37.9375 13.304688 -34.628906 15.171875 -32.296875 C 17.046875 -29.972656 19.75 -28.972656 23.28125 -29.296875 C 25.675781 -29.523438 27.765625 -30.269531 29.546875 -31.53125 C 31.328125 -32.789062 32.734375 -34.398438 33.765625 -36.359375 C 34.304688 -37.378906 35.085938 -37.796875 36.109375 -37.609375 C 37.128906 -37.429688 38.019531 -36.96875 38.78125 -36.21875 C 39.550781 -35.476562 39.769531 -34.691406 39.4375 -33.859375 C 38.84375 -32.429688 38.054688 -30.457031 37.078125 -27.9375 C 36.109375 -25.425781 34.914062 -22.691406 33.5 -19.734375 C 32.082031 -16.785156 30.367188 -13.960938 28.359375 -11.265625 C 26.359375 -8.578125 24.007812 -6.296875 21.3125 -4.421875 C 18.625 -2.554688 15.5625 -1.460938 12.125 -1.140625 Z M 12.125 -1.140625 "/></g></g><g style="fill:#a548ff;fill-opacity:0.502;"><g transform="translate(275.3904, 255.520785)"><path style="stroke:none" d="M 22.578125 -2.125 C 17.773438 -1.675781 13.726562 -2.382812 10.4375 -4.25 C 7.15625 -6.125 4.609375 -8.769531 2.796875 -12.1875 C 0.984375 -15.601562 -0.101562 -19.453125 -0.46875 -23.734375 C -0.84375 -28.023438 -0.507812 -32.378906 0.53125 -36.796875 C 1.570312 -41.222656 3.285156 -45.34375 5.671875 -49.15625 C 8.054688 -52.96875 11.085938 -56.132812 14.765625 -58.65625 C 18.453125 -61.1875 22.734375 -62.679688 27.609375 -63.140625 C 31.367188 -63.492188 34.492188 -63.082031 36.984375 -61.90625 C 39.472656 -60.726562 41.382812 -59.03125 42.71875 -56.8125 C 44.0625 -54.59375 44.859375 -52.164062 45.109375 -49.53125 C 45.378906 -46.644531 44.847656 -43.6875 43.515625 -40.65625 C 42.191406 -37.625 40.175781 -35.035156 37.46875 -32.890625 C 34.769531 -30.742188 31.457031 -29.488281 27.53125 -29.125 C 25.851562 -28.96875 24.203125 -28.929688 22.578125 -29.015625 C 20.953125 -29.097656 19.421875 -29.472656 17.984375 -30.140625 C 17.566406 -30.347656 17.128906 -30.328125 16.671875 -30.078125 C 16.210938 -29.835938 16.019531 -29.316406 16.09375 -28.515625 C 16.289062 -26.429688 17.660156 -24.960938 20.203125 -24.109375 C 22.742188 -23.265625 25.726562 -23.003906 29.15625 -23.328125 C 33.238281 -23.710938 37.363281 -25.148438 41.53125 -27.640625 C 45.707031 -30.128906 48.957031 -33.582031 51.28125 -38 C 51.820312 -39.019531 52.625 -39.441406 53.6875 -39.265625 C 54.757812 -39.085938 55.675781 -38.625 56.4375 -37.875 C 57.195312 -37.132812 57.375 -36.347656 56.96875 -35.515625 C 52.59375 -25.253906 47.503906 -17.285156 41.703125 -11.609375 C 35.910156 -5.941406 29.535156 -2.78125 22.578125 -2.125 Z M 23.546875 -37.828125 C 25.867188 -38.046875 27.625 -38.957031 28.8125 -40.5625 C 30 -42.164062 30.519531 -43.726562 30.375 -45.25 C 30.25 -46.613281 29.675781 -47.726562 28.65625 -48.59375 C 27.644531 -49.46875 26.222656 -49.820312 24.390625 -49.65625 C 22.066406 -49.4375 20.289062 -48.539062 19.0625 -46.96875 C 17.84375 -45.394531 17.3125 -43.8125 17.46875 -42.21875 C 17.582031 -40.925781 18.144531 -39.828125 19.15625 -38.921875 C 20.164062 -38.015625 21.628906 -37.648438 23.546875 -37.828125 Z M 23.546875 -37.828125 "/></g></g><g style="fill:#5e17eb;fill-opacity:1;"><g transform="translate(52.085074, 272.125097)"><path style="stroke:none" d="M 123.78125 -44.828125 C 124.257812 -45.753906 124.867188 -46.113281 125.609375 -45.90625 C 126.359375 -45.695312 127.085938 -45.238281 127.796875 -44.53125 C 128.515625 -43.832031 129.070312 -43.101562 129.46875 -42.34375 C 128.789062 -40.976562 128.003906 -39.019531 127.109375 -36.46875 C 126.222656 -33.925781 125.128906 -31.203125 123.828125 -28.296875 C 122.523438 -25.390625 120.953125 -22.578125 119.109375 -19.859375 C 117.265625 -17.148438 115.113281 -14.867188 112.65625 -13.015625 C 110.207031 -11.171875 107.34375 -10.097656 104.0625 -9.796875 C 99.65625 -9.378906 96.164062 -10.625 93.59375 -13.53125 C 91.03125 -16.4375 89.488281 -20.613281 88.96875 -26.0625 C 88.644531 -29.5 88.75 -32.894531 89.28125 -36.25 C 89.820312 -39.613281 90.515625 -42.785156 91.359375 -45.765625 C 92.210938 -48.753906 92.957031 -51.363281 93.59375 -53.59375 C 94.226562 -55.832031 94.488281 -57.554688 94.375 -58.765625 C 94.207031 -60.523438 93.363281 -61.335938 91.84375 -61.203125 C 90.800781 -61.097656 89.804688 -60.492188 88.859375 -59.390625 C 87.910156 -58.296875 86.957031 -56.390625 86 -53.671875 C 85.050781 -50.960938 84.035156 -47.15625 82.953125 -42.25 C 81.878906 -37.34375 80.742188 -31.003906 79.546875 -23.234375 C 78.898438 -18.972656 77.648438 -16.144531 75.796875 -14.75 C 73.953125 -13.363281 72.03125 -12.578125 70.03125 -12.390625 C 66.269531 -12.035156 63.6875 -12.4375 62.28125 -13.59375 C 60.882812 -14.757812 60.070312 -16.582031 59.84375 -19.0625 C 59.625 -21.3125 59.75 -23.804688 60.21875 -26.546875 C 60.6875 -29.296875 61.222656 -32.191406 61.828125 -35.234375 C 62.429688 -38.273438 62.953125 -41.332031 63.390625 -44.40625 C 63.828125 -47.476562 63.921875 -50.378906 63.671875 -53.109375 C 63.453125 -55.421875 63.023438 -56.929688 62.390625 -57.640625 C 61.753906 -58.347656 61.039062 -58.664062 60.25 -58.59375 C 58.476562 -58.425781 57.457031 -57.195312 57.1875 -54.90625 C 55.769531 -41.695312 53.09375 -30.890625 49.15625 -22.484375 C 45.226562 -14.078125 40.410156 -7.789062 34.703125 -3.625 C 29.003906 0.539062 22.753906 2.945312 15.953125 3.59375 C 11.316406 4.03125 7.363281 3.410156 4.09375 1.734375 C 0.832031 0.0546875 -1.703125 -2.265625 -3.515625 -5.234375 C -5.335938 -8.210938 -6.40625 -11.34375 -6.71875 -14.625 C -7.03125 -17.90625 -6.664062 -21.109375 -5.625 -24.234375 C -4.582031 -27.359375 -2.945312 -29.972656 -0.71875 -32.078125 C 1.5 -34.179688 4.210938 -35.382812 7.421875 -35.6875 C 8.609375 -35.800781 9.25 -35.378906 9.34375 -34.421875 C 9.59375 -31.785156 10.953125 -29.753906 13.421875 -28.328125 C 15.898438 -26.898438 18.863281 -26.347656 22.3125 -26.671875 C 25.675781 -26.992188 28.757812 -28.113281 31.5625 -30.03125 C 34.375 -31.957031 36.851562 -34.347656 39 -37.203125 C 41.15625 -40.066406 42.960938 -43.179688 44.421875 -46.546875 C 45.878906 -49.921875 46.914062 -53.253906 47.53125 -56.546875 C 48.15625 -59.835938 48.347656 -62.757812 48.109375 -65.3125 C 47.804688 -68.519531 46.832031 -70.890625 45.1875 -72.421875 C 43.550781 -73.960938 41.453125 -74.613281 38.890625 -74.375 C 36.015625 -74.101562 33.550781 -72.800781 31.5 -70.46875 C 29.457031 -68.132812 28.613281 -65.09375 28.96875 -61.34375 C 29.164062 -59.25 29.910156 -57.535156 31.203125 -56.203125 C 32.503906 -54.878906 34.035156 -54.300781 35.796875 -54.46875 C 36.660156 -52.9375 36.722656 -50.984375 35.984375 -48.609375 C 35.242188 -46.234375 33.773438 -44.078125 31.578125 -42.140625 C 29.378906 -40.203125 26.484375 -39.0625 22.890625 -38.71875 C 18.171875 -38.28125 14.082031 -39.632812 10.625 -42.78125 C 7.175781 -45.925781 5.191406 -50.296875 4.671875 -55.890625 C 4.242188 -60.453125 4.753906 -64.878906 6.203125 -69.171875 C 7.660156 -73.472656 9.976562 -77.382812 13.15625 -80.90625 C 16.332031 -84.4375 20.273438 -87.351562 24.984375 -89.65625 C 29.691406 -91.96875 35.046875 -93.40625 41.046875 -93.96875 C 51.535156 -94.957031 59.914062 -92.757812 66.1875 -87.375 C 72.46875 -81.988281 76.597656 -74.335938 78.578125 -64.421875 C 80.179688 -68.765625 82.179688 -73.03125 84.578125 -77.21875 C 86.972656 -81.40625 89.644531 -85.191406 92.59375 -88.578125 C 95.539062 -91.960938 98.644531 -94.738281 101.90625 -96.90625 C 105.175781 -99.070312 108.492188 -100.3125 111.859375 -100.625 C 116.503906 -101.0625 119.898438 -100.128906 122.046875 -97.828125 C 124.203125 -95.523438 125.4375 -92.734375 125.75 -89.453125 C 125.96875 -87.046875 125.75 -84.640625 125.09375 -82.234375 C 124.4375 -79.835938 123.5 -77.8125 122.28125 -76.15625 C 121.0625 -74.507812 119.734375 -73.617188 118.296875 -73.484375 C 117.410156 -73.398438 116.628906 -73.550781 115.953125 -73.9375 C 115.273438 -74.320312 114.535156 -74.476562 113.734375 -74.40625 C 112.535156 -74.289062 111.476562 -73.460938 110.5625 -71.921875 C 109.65625 -70.378906 108.910156 -68.429688 108.328125 -66.078125 C 107.742188 -63.722656 107.289062 -61.238281 106.96875 -58.625 C 106.65625 -56.007812 106.445312 -53.523438 106.34375 -51.171875 C 106.238281 -48.828125 106.253906 -46.9375 106.390625 -45.5 C 106.628906 -43.019531 107.363281 -41.046875 108.59375 -39.578125 C 109.820312 -38.117188 111.796875 -37.519531 114.515625 -37.78125 C 118.347656 -38.132812 121.4375 -40.484375 123.78125 -44.828125 Z M 123.78125 -44.828125 "/></g></g><g style="fill:#5e17eb;fill-opacity:1;"><g transform="translate(176.658057, 260.402338)"><path style="stroke:none" d="M 12.71875 -1.203125 C 8.632812 -0.816406 5.394531 -2.203125 3 -5.359375 C 0.601562 -8.523438 -0.84375 -12.789062 -1.34375 -18.15625 C -1.664062 -21.507812 -1.582031 -25.125 -1.09375 -29 C -0.613281 -32.882812 0.269531 -36.742188 1.5625 -40.578125 C 2.863281 -44.421875 4.613281 -47.960938 6.8125 -51.203125 C 9.007812 -54.441406 11.664062 -57.113281 14.78125 -59.21875 C 17.894531 -61.320312 21.53125 -62.570312 25.6875 -62.96875 C 28.082031 -63.1875 29.960938 -63.132812 31.328125 -62.8125 C 32.691406 -62.5 33.738281 -62.054688 34.46875 -61.484375 C 35.207031 -60.910156 35.835938 -60.425781 36.359375 -60.03125 C 36.890625 -59.632812 37.554688 -59.472656 38.359375 -59.546875 C 39.710938 -59.679688 40.769531 -60.164062 41.53125 -61 C 42.300781 -61.84375 43.171875 -62.691406 44.140625 -63.546875 C 45.117188 -64.410156 46.53125 -64.925781 48.375 -65.09375 C 49.976562 -65.25 51.113281 -64.957031 51.78125 -64.21875 C 52.445312 -63.476562 52.84375 -62.425781 52.96875 -61.0625 C 53.1875 -58.8125 52.78125 -56.523438 51.75 -54.203125 C 50.71875 -51.890625 49.6875 -48.914062 48.65625 -45.28125 C 47.070312 -40.675781 46.648438 -37.238281 47.390625 -34.96875 C 48.128906 -32.695312 49.816406 -31.6875 52.453125 -31.9375 C 54.546875 -32.132812 56.296875 -32.84375 57.703125 -34.0625 C 59.117188 -35.28125 60.335938 -36.910156 61.359375 -38.953125 C 61.898438 -39.972656 62.6875 -40.390625 63.71875 -40.203125 C 64.75 -40.023438 65.640625 -39.5625 66.390625 -38.8125 C 67.148438 -38.070312 67.367188 -37.289062 67.046875 -36.46875 C 65.867188 -33.53125 64.617188 -30.28125 63.296875 -26.71875 C 61.972656 -23.164062 60.457031 -19.734375 58.75 -16.421875 C 57.050781 -13.117188 55.015625 -10.328125 52.640625 -8.046875 C 50.273438 -5.765625 47.414062 -4.460938 44.0625 -4.140625 C 39.894531 -3.753906 36.789062 -5.160156 34.75 -8.359375 C 32.71875 -11.554688 31.820312 -15.671875 32.0625 -20.703125 L 31.59375 -20.65625 C 29.664062 -15.550781 27.097656 -11.128906 23.890625 -7.390625 C 20.691406 -3.660156 16.96875 -1.597656 12.71875 -1.203125 Z M 22.375 -27.171875 C 24.457031 -27.367188 26.222656 -28.140625 27.671875 -29.484375 C 29.128906 -30.835938 30.21875 -32.410156 30.9375 -34.203125 C 31.65625 -36.003906 31.929688 -37.753906 31.765625 -39.453125 C 31.578125 -41.441406 30.867188 -42.941406 29.640625 -43.953125 C 28.421875 -44.972656 26.851562 -45.390625 24.9375 -45.203125 C 22.851562 -45.003906 21.101562 -44.273438 19.6875 -43.015625 C 18.269531 -41.753906 17.222656 -40.222656 16.546875 -38.421875 C 15.867188 -36.628906 15.613281 -34.851562 15.78125 -33.09375 C 15.96875 -31.09375 16.65625 -29.5625 17.84375 -28.5 C 19.03125 -27.4375 20.539062 -26.992188 22.375 -27.171875 Z M 22.375 -27.171875 "/></g></g><g style="fill:#5e17eb;fill-opacity:1;"><g transform="translate(238.824584, 254.552248)"><path style="stroke:none" d="M 12.125 -1.140625 C 7.632812 -0.722656 4.195312 -1.789062 1.8125 -4.34375 C -0.5625 -6.90625 -1.957031 -10.40625 -2.375 -14.84375 C -2.789062 -19.289062 -2.351562 -24.160156 -1.0625 -29.453125 C -0.320312 -32.578125 0.519531 -35.960938 1.46875 -39.609375 C 2.425781 -43.253906 3.46875 -47.226562 4.59375 -51.53125 C 2.832031 -51.363281 1.445312 -51.695312 0.4375 -52.53125 C -0.5625 -53.375 -1.257812 -54.398438 -1.65625 -55.609375 C -2.050781 -56.828125 -2.148438 -57.90625 -1.953125 -58.84375 C -1.765625 -59.789062 -1.3125 -60.296875 -0.59375 -60.359375 C 2.925781 -60.691406 5.59375 -61.929688 7.40625 -64.078125 C 9.21875 -66.222656 10.425781 -68.421875 11.03125 -70.671875 C 12.132812 -74.328125 13.320312 -76.675781 14.59375 -77.71875 C 15.875 -78.769531 17.273438 -79.367188 18.796875 -79.515625 C 21.035156 -79.722656 22.519531 -78.910156 23.25 -77.078125 C 23.988281 -75.253906 23.617188 -72.375 22.140625 -68.4375 C 21.429688 -66.4375 21.082031 -64.929688 21.09375 -63.921875 C 21.113281 -62.910156 21.6875 -62.457031 22.8125 -62.5625 L 29.046875 -63.15625 C 29.847656 -63.226562 30.421875 -62.710938 30.765625 -61.609375 C 31.117188 -60.515625 31.222656 -59.234375 31.078125 -57.765625 C 30.929688 -56.296875 30.53125 -54.96875 29.875 -53.78125 C 29.226562 -52.59375 28.300781 -51.941406 27.09375 -51.828125 C 23.414062 -51.484375 20.707031 -51.085938 18.96875 -50.640625 C 17.238281 -50.191406 16.066406 -49.375 15.453125 -48.1875 C 14.835938 -47 14.257812 -45.007812 13.71875 -42.21875 C 12.820312 -37.9375 13.304688 -34.628906 15.171875 -32.296875 C 17.046875 -29.972656 19.75 -28.972656 23.28125 -29.296875 C 25.675781 -29.523438 27.765625 -30.269531 29.546875 -31.53125 C 31.328125 -32.789062 32.734375 -34.398438 33.765625 -36.359375 C 34.304688 -37.378906 35.085938 -37.796875 36.109375 -37.609375 C 37.128906 -37.429688 38.019531 -36.96875 38.78125 -36.21875 C 39.550781 -35.476562 39.769531 -34.691406 39.4375 -33.859375 C 38.84375 -32.429688 38.054688 -30.457031 37.078125 -27.9375 C 36.109375 -25.425781 34.914062 -22.691406 33.5 -19.734375 C 32.082031 -16.785156 30.367188 -13.960938 28.359375 -11.265625 C 26.359375 -8.578125 24.007812 -6.296875 21.3125 -4.421875 C 18.625 -2.554688 15.5625 -1.460938 12.125 -1.140625 Z M 12.125 -1.140625 "/></g></g><g style="fill:#5e17eb;fill-opacity:1;"><g transform="translate(273.388248, 251.299685)"><path style="stroke:none" d="M 22.578125 -2.125 C 17.773438 -1.675781 13.726562 -2.382812 10.4375 -4.25 C 7.15625 -6.125 4.609375 -8.769531 2.796875 -12.1875 C 0.984375 -15.601562 -0.101562 -19.453125 -0.46875 -23.734375 C -0.84375 -28.023438 -0.507812 -32.378906 0.53125 -36.796875 C 1.570312 -41.222656 3.285156 -45.34375 5.671875 -49.15625 C 8.054688 -52.96875 11.085938 -56.132812 14.765625 -58.65625 C 18.453125 -61.1875 22.734375 -62.679688 27.609375 -63.140625 C 31.367188 -63.492188 34.492188 -63.082031 36.984375 -61.90625 C 39.472656 -60.726562 41.382812 -59.03125 42.71875 -56.8125 C 44.0625 -54.59375 44.859375 -52.164062 45.109375 -49.53125 C 45.378906 -46.644531 44.847656 -43.6875 43.515625 -40.65625 C 42.191406 -37.625 40.175781 -35.035156 37.46875 -32.890625 C 34.769531 -30.742188 31.457031 -29.488281 27.53125 -29.125 C 25.851562 -28.96875 24.203125 -28.929688 22.578125 -29.015625 C 20.953125 -29.097656 19.421875 -29.472656 17.984375 -30.140625 C 17.566406 -30.347656 17.128906 -30.328125 16.671875 -30.078125 C 16.210938 -29.835938 16.019531 -29.316406 16.09375 -28.515625 C 16.289062 -26.429688 17.660156 -24.960938 20.203125 -24.109375 C 22.742188 -23.265625 25.726562 -23.003906 29.15625 -23.328125 C 33.238281 -23.710938 37.363281 -25.148438 41.53125 -27.640625 C 45.707031 -30.128906 48.957031 -33.582031 51.28125 -38 C 51.820312 -39.019531 52.625 -39.441406 53.6875 -39.265625 C 54.757812 -39.085938 55.675781 -38.625 56.4375 -37.875 C 57.195312 -37.132812 57.375 -36.347656 56.96875 -35.515625 C 52.59375 -25.253906 47.503906 -17.285156 41.703125 -11.609375 C 35.910156 -5.941406 29.535156 -2.78125 22.578125 -2.125 Z M 23.546875 -37.828125 C 25.867188 -38.046875 27.625 -38.957031 28.8125 -40.5625 C 30 -42.164062 30.519531 -43.726562 30.375 -45.25 C 30.25 -46.613281 29.675781 -47.726562 28.65625 -48.59375 C 27.644531 -49.46875 26.222656 -49.820312 24.390625 -49.65625 C 22.066406 -49.4375 20.289062 -48.539062 19.0625 -46.96875 C 17.84375 -45.394531 17.3125 -43.8125 17.46875 -42.21875 C 17.582031 -40.925781 18.144531 -39.828125 19.15625 -38.921875 C 20.164062 -38.015625 21.628906 -37.648438 23.546875 -37.828125 Z M 23.546875 -37.828125 "/></g></g></g></svg>